<svg width="24" height="24" viewBox="0 0 24 24" fill="none" xmlns="http://www.w3.org/2000/svg">
<path d="M15.9375 5.5C16.8516 5.5 17.625 6.27344 17.625 7.1875V17.3125C17.625 18.2617 16.8516 19 15.9375 19L14.8125 18.9648C13.8633 18.9648 13.125 18.1914 13.125 17.2773V7.15234C13.125 6.23828 13.8633 5.5 14.8125 5.5H15.9375ZM9.1875 5.5C10.1016 5.5 10.875 6.27344 10.875 7.1875V17.3125C10.875 18.2617 10.1016 19 9.1875 19H8.0625C7.11328 19 6.375 18.2617 6.375 17.3125V7.1875C6.375 6.23828 7.11328 5.5 8.0625 5.5H9.1875Z" fill="white"/>
</svg>
