<svg width="17" height="17" viewBox="0 0 17 17" fill="none" xmlns="http://www.w3.org/2000/svg">
<path d="M16.875 8.25C16.875 12.6094 13.3242 16.125 9 16.125C7.27734 16.125 5.625 15.5977 4.25391 14.5781C3.76172 14.1914 3.65625 13.4883 4.04297 12.9961C4.42969 12.5039 5.13281 12.3984 5.625 12.75C6.60938 13.4883 7.76953 13.875 9 13.875C12.0938 13.875 14.625 11.3789 14.625 8.25C14.625 5.15625 12.0938 2.66015 9 2.66015C7.66406 2.66015 6.43359 3.11718 5.41406 3.92578L7.03125 5.50781C7.62891 6.10547 7.17188 7.16015 6.32812 7.16015H1.23047C0.84375 7.16015 0.5625 6.84375 0.5625 6.45703V1.35937C0.5625 0.480466 1.58203 0.0585908 2.17969 0.656247L3.83203 2.34375C5.23828 1.11328 7.06641 0.410153 9 0.410153C13.3242 0.410153 16.875 3.92578 16.875 8.25Z" fill="white"/>
</svg>
