<?xml version="1.0" encoding="utf-8"?>
<!-- Generator: Adobe Illustrator 25.0.0, SVG Export Plug-In . SVG Version: 6.00 Build 0)  -->
<svg
  version="1.1"
  id="Layer_1"
  xmlns="http://www.w3.org/2000/svg"
  xmlns:xlink="http://www.w3.org/1999/xlink"
  x="0px"
  y="0px"
  viewBox="0 0 612 175.2"
  style="enable-background: new 0 0 612 175.2"
  xml:space="preserve"
  width="75%"
  class="hidden md:block"
>
      <style type="text/css">
        .st0 {
          fill: none;
          stroke: #1e2c32;
          stroke-miterlimit: 10;
        }
        .st1 {
          fill: #ff0057;
        }
        .st2 {
          fill: none;
          stroke: #f6931d;
          stroke-width: 6;
          stroke-linecap: round;
          stroke-miterlimit: 10;
        }
        .st3 {
          fill: #f6931d;
        }
        .st4 {
          fill: none;
          stroke: #f6931d;
          stroke-width: 8;
          stroke-miterlimit: 10;
        }
        .st5 {
          fill: #ffffff;
        }
      </style>
      <g>
        <g>
          <path
            class="st1"
            d="M333.18,61.47c1.65-1.68,2.57-3.92,2.57-6.29c0-2.4-0.93-4.66-2.63-6.36l-1.83-1.84
			c-1.71-1.7-3.97-2.64-6.37-2.64c-0.34,0-0.68,0.02-1.01,0.06c0.03-0.41,0.04-0.83,0.04-1.25c0-9.89-8.05-17.94-17.94-17.94
			c-0.46,0-0.86,0.01-1.22,0.04c-9.73,0.66-17.22,9.13-16.7,18.89c0,0.09,0.01,0.17,0.02,0.26c-0.34-0.04-0.67-0.06-1.01-0.06
			c-2.4,0-4.66,0.93-6.36,2.63l-1.84,1.85c-1.69,1.69-2.63,3.95-2.63,6.36c0,2.37,0.91,4.6,2.56,6.29c-1.89,4-2.88,8.44-2.88,12.94
			c0,16.57,13.49,30.06,30.07,30.06c16.57,0,30.06-13.48,30.06-30.06C336.06,69.91,335.07,65.47,333.18,61.47z"
          />
          <g>
            <path
              class="st5"
              d="M309.84,56.08c-0.49-0.1-0.97,0.21-1.07,0.7c-0.1,0.49,0.21,0.97,0.7,1.07c4.59,0.96,8.42,3.77,10.81,7.55
				l-1.73,0.97c-0.44,0.24-0.6,0.8-0.35,1.24c0.17,0.3,0.48,0.47,0.79,0.47c0.15,0,0.3-0.04,0.44-0.12l1.74-0.97
				c1.11,2.26,1.74,4.78,1.74,7.41c0,2.64-0.63,5.15-1.74,7.41l-1.74-0.97c-0.44-0.24-0.99-0.09-1.24,0.35
				c-0.24,0.44-0.09,0.99,0.35,1.24l1.73,0.97c-2.39,3.78-6.22,6.59-10.81,7.55c-0.49,0.1-0.81,0.58-0.7,1.07
				c0.09,0.43,0.47,0.72,0.89,0.72c0.06,0,0.12-0.01,0.19-0.02c8.63-1.8,14.89-9.5,14.89-18.33
				C324.72,65.58,318.46,57.87,309.84,56.08z"
            />
            <path
              class="st5"
              d="M302.53,90.95c-4.59-0.96-8.42-3.78-10.81-7.55l1.73-0.96c0.44-0.24,0.6-0.8,0.35-1.24
				c-0.24-0.44-0.8-0.6-1.24-0.35l-1.73,0.97c-1.11-2.26-1.74-4.78-1.74-7.41c0-2.63,0.63-5.15,1.74-7.41l1.73,0.97
				c0.14,0.08,0.29,0.12,0.44,0.12c0.32,0,0.63-0.17,0.79-0.47c0.24-0.44,0.09-0.99-0.35-1.24l-1.73-0.96
				c2.39-3.78,6.22-6.59,10.81-7.55c0.49-0.1,0.81-0.58,0.7-1.07c-0.1-0.49-0.58-0.81-1.07-0.7c-8.62,1.8-14.88,9.51-14.88,18.33
				s6.26,16.53,14.88,18.33c0.06,0.01,0.12,0.02,0.19,0.02c0.42,0,0.8-0.29,0.89-0.72C303.34,91.54,303.02,91.05,302.53,90.95z"
            />
            <path
              class="st5"
              d="M306,62.74c0.5,0,0.91-0.41,0.91-0.91v-4.78c0-0.5-0.41-0.91-0.91-0.91c-0.5,0-0.91,0.41-0.91,0.91v4.78
				C305.09,62.33,305.5,62.74,306,62.74z"
            />
            <path
              class="st5"
              d="M306,86.07c-0.5,0-0.91,0.41-0.91,0.91v4.78c0,0.5,0.41,0.91,0.91,0.91c0.5,0,0.91-0.41,0.91-0.91v-4.78
				C306.91,86.48,306.5,86.07,306,86.07z"
            />
            <path
              class="st5"
              d="M283.91,57.76c0.44,0.44,1.16,0.44,1.61,0l4.15-4.15c0.44-0.44,0.44-1.16,0-1.61l-0.62-0.62
				c-1.08-1.08-2.84-1.08-3.92,0l-1.84,1.84c-1.08,1.08-1.08,2.84,0,3.92L283.91,57.76z"
            />
            <path
              class="st5"
              d="M326.49,57.76c0.44,0.44,1.16,0.44,1.61,0l0.62-0.62c1.08-1.08,1.08-2.84,0-3.92l-1.84-1.84
				c-1.08-1.08-2.84-1.08-3.92,0L322.33,52c-0.44,0.44-0.44,1.16,0,1.61L326.49,57.76z"
            />
            <path
              class="st5"
              d="M311.13,51.12v-6.43h-10.25v6.43c-10.91,2.38-18.71,12-18.71,23.28c0,13.14,10.69,23.83,23.84,23.83
				c13.14,0,23.83-10.69,23.83-23.83C329.84,63.13,322.03,53.5,311.13,51.12z M306,95.73c-11.76,0-21.33-9.57-21.33-21.33
				c0-10.41,7.43-19.25,17.67-21.02l1.04-0.18v-6.01h5.23v6.01l1.04,0.18c10.24,1.77,17.67,10.6,17.67,21.02
				C327.33,86.16,317.76,95.73,306,95.73z"
            />
            <path
              class="st5"
              d="M304.03,36.59c-1.65,0-2.98,1.33-2.98,2.98v2.74h9.9v-3.28c0-1.35-1.09-2.44-2.44-2.44H304.03z"
            />
            <path
              class="st5"
              d="M295.98,49.23c0.39,0.63,1.25,0.77,1.84,0.32c0.5-0.39,0.62-1.1,0.29-1.65c-0.86-1.43-1.31-3.05-1.31-4.75
				c0-5.26,4.43-9.5,9.76-9.19c5.02,0.29,8.95,4.76,8.64,9.78c-0.09,1.49-0.53,2.9-1.3,4.16c-0.33,0.55-0.21,1.25,0.29,1.64
				c0.58,0.46,1.45,0.32,1.84-0.32c1.11-1.83,1.7-3.9,1.7-6.08c0-6.72-5.7-12.14-12.52-11.69c-6.32,0.42-11.24,6.02-10.9,12.34
				C294.41,45.74,294.98,47.59,295.98,49.23z"
            />
            <path
              class="st5"
              d="M311.92,71.98c0.68,0.93,1.27,1.56,1.4,1.46l3.16-2.11c0.16-0.11-0.39-1.24-1.26-2.52
				c-0.86-1.29-1.69-2.25-1.86-2.13l-3.15,2.11c-0.14,0.09,0.22,0.87,0.83,1.85l-3.7,2.17c-0.39-0.24-0.84-0.38-1.33-0.38
				s-0.94,0.14-1.33,0.38l-3.7-2.17c0.6-0.99,0.96-1.76,0.83-1.85l-3.15-2.11c-0.17-0.11-1.01,0.84-1.86,2.13
				c-0.87,1.28-1.42,2.42-1.26,2.52l3.16,2.11c0.13,0.1,0.72-0.53,1.4-1.46l3.39,2.54c-0.03,0.16-0.05,0.32-0.05,0.48
				c0,1.42,1.15,2.58,2.58,2.58s2.58-1.15,2.58-2.58c0-0.17-0.02-0.33-0.05-0.48L311.92,71.98z"
            />
          </g>
        </g>
        <g>
          <g>
            <path
              fill="white"
              d="M179.96,139.49c-6.31,0-7.43-2.73-7.43-5.82c0-3.06,1.08-5.74,7.43-5.74c4.54,0,6.65,1.36,7.06,4.09H198
				c-0.45-9.13-6.48-13.17-18.04-13.17c-4.39,0-7.92,0.57-10.66,1.74c-0.32,0.14-0.64,0.29-0.94,0.44c-0.3,0.16-0.59,0.32-0.87,0.49
				l4.22,3l-8.82,12.31v3.52c0.25,0.66,0.55,1.27,0.9,1.85c0.27,0.44,0.57,0.86,0.9,1.26c2.81,3.43,7.78,5.11,15.27,5.11
				c11.6,0,17.59-4.09,18.04-13.25h-10.98C186.61,138.08,184.5,139.49,179.96,139.49z"
            />
            <path
              fill="white"
              d="M233.83,130.32c0-6.44-4.5-11.06-11.06-11.06h-22.7v28.89h10.73v-6.76h6.32l4,6.76h12.71l-5.12-8.29
				C231.89,138,233.83,134.53,233.83,130.32z M220.71,132.3h-9.91v-3.96h9.91c1.07,0,2.39,0,2.39,1.98S221.78,132.3,220.71,132.3z"
            />
            <path
              fill="white"
              d="M251.8,118.85c-11.45,0-16.35,4.79-16.35,14.82c0,10.07,4.9,14.9,16.35,14.9c11.4,0,16.34-4.87,16.34-14.9
				C268.14,123.68,263.2,118.85,251.8,118.85z M251.8,139.49c-5.69,0-6.69-2.73-6.69-5.82c0-3.06,0.96-5.74,6.69-5.74
				c5.72,0,6.68,2.72,6.68,5.74C258.48,136.72,257.48,139.49,251.8,139.49z"
            />
            <path
              fill="white"
              d="M296.58,119.26v17.05l-12.47-17.05h-14.03v28.89h10.73v-17.04l12.47,17.04h14.03v-28.89H296.58z"
            />
            <path
              fill="white"
              d="M325.69,118.85c-11.45,0-16.35,4.79-16.35,14.82c0,10.07,4.9,14.9,16.35,14.9c11.4,0,16.35-4.87,16.35-14.9
				C342.04,123.68,337.09,118.85,325.69,118.85z M325.69,139.49c-5.69,0-6.69-2.73-6.69-5.82c0-3.06,0.97-5.74,6.69-5.74
				c5.72,0,6.69,2.72,6.69,5.74C332.38,136.72,331.37,139.49,325.69,139.49z M319.84,117.04l14.84-2.75
				c0.68-0.13,1.18-0.72,1.18-1.42v-4.86c0-1.1-1.17-1.79-2.14-1.27l-14.7,8.01c-0.4,0.22-0.64,0.63-0.64,1.08v0
				C318.39,116.6,319.09,117.19,319.84,117.04z"
            />
            <path
              fill="white"
              d="M375.01,119.26l-8.91,16.51l-8.92-16.51h-13.21v28.89h10.73v-13.74l7.89,13.74h7.02l7.88-13.74v13.74h10.73v-28.89
				H375.01z"
            />
            <path
              fill="white"
              d="M421.25,127.52v-8.26H390.7v28.89h30.55v-8.25h-19.82v-2.68h19.82v-7.02h-19.82v-2.68H421.25z"
            />
            <path
              fill="white"
              d="M422.9,119.26v9.08h12.38v19.81h10.74v-19.81h12.38v-9.08H422.9z"
            />
            <path
              fill="white"
              d="M494.23,130.32c0-6.44-4.5-11.06-11.06-11.06h-22.7v28.89h10.73v-6.76h6.31l4.01,6.76h12.71l-5.12-8.29
				C492.29,138,494.23,134.53,494.23,130.32z M481.1,132.3h-9.9v-3.96h9.9c1.08,0,2.4,0,2.4,1.98S482.18,132.3,481.1,132.3z"
            />
            <path
              fill="white"
              d="M512.19,118.85c-11.44,0-16.35,4.79-16.35,14.82c0,10.07,4.91,14.9,16.35,14.9c11.41,0,16.35-4.87,16.35-14.9
				C528.54,123.68,523.6,118.85,512.19,118.85z M512.19,139.49c-5.68,0-6.69-2.73-6.69-5.82c0-3.06,0.97-5.74,6.69-5.74
				c5.72,0,6.69,2.72,6.69,5.74C518.88,136.72,517.88,139.49,512.19,139.49z"
            />
          </g>
          <g>
            <path
              fill="white"
              d="M108.99,138.04c-0.03-0.11-0.04-0.23-0.05-0.37c-0.01-0.19-0.02-0.41-0.07-0.64c-0.01-0.07-0.05-0.19-0.08-0.3
				c-0.02-0.06-0.03-0.11-0.04-0.17c-0.17-0.76-0.45-1.48-0.92-2.38c-0.4-0.72-0.9-1.31-1.39-1.84c-0.14-0.16-0.31-0.3-0.46-0.43
				c-0.07-0.05-0.15-0.11-0.21-0.18c-0.37-0.35-0.76-0.59-1.2-0.85c-0.43-0.26-0.87-0.47-1.3-0.68c-0.15-0.07-0.29-0.12-0.44-0.17
				c-0.12-0.04-0.24-0.08-0.32-0.12c-0.23-0.13-0.46-0.2-0.63-0.26c-0.09-0.02-0.18-0.05-0.26-0.08c-0.51-0.21-1.01-0.33-1.49-0.45
				c-0.11-0.02-0.23-0.06-0.35-0.09c-0.33-0.1-0.7-0.2-1.11-0.24c0,0-0.02-0.01-0.04-0.02c-0.11-0.04-0.26-0.09-0.45-0.11
				c-0.23-0.02-0.44-0.07-0.72-0.15c-0.09-0.04-0.26-0.11-0.5-0.11h-0.09l-0.02-0.01l-0.11-0.03l-0.39-0.12
				c-0.02-0.01-0.03-0.01-0.05-0.02c-0.22-0.05-0.42-0.1-0.59-0.15c0.02-0.01,0.04-0.01,0.07-0.01h0.31c0.21,0,0.36,0.01,0.49,0.05
				c0.11,0.05,0.24,0.08,0.39,0.08c0.04,0,0.08,0,0.12-0.01c0.09,0,0.16,0.02,0.23,0.03c0.13,0.02,0.3,0.05,0.49,0.05h0.07
				c0.06,0,0.12,0.01,0.2,0.03c0.29,0.1,0.58,0.16,0.84,0.22c0.12,0.02,0.25,0.05,0.38,0.08c0.43,0.12,0.85,0.26,1.3,0.42
				c0.28,0.09,0.56,0.19,0.84,0.28c0.14,0.08,0.31,0.17,0.52,0.21c0.08,0.02,0.13,0.05,0.18,0.07c0.11,0.06,0.24,0.13,0.41,0.18
				c0.12,0.07,0.26,0.14,0.45,0.18c0.1,0.03,0.23,0.1,0.35,0.16c0.27,0.15,0.54,0.28,0.82,0.42l0.2,0.1
				c0.33,0.16,0.65,0.25,0.96,0.25c0.07,0,0.14-0.01,0.21-0.02c0.3-0.03,0.73-0.11,1.14-0.43c0.73-0.57,1.08-1.37,0.97-2.24
				c-0.02-0.2-0.03-0.38-0.04-0.57c0-0.09,0.01-0.27-0.07-0.46c-0.06-0.15-0.06-0.35-0.07-0.58c-0.01-0.2-0.01-0.43-0.05-0.67
				c-0.02-0.1-0.03-0.2-0.04-0.3c-0.01-0.14-0.03-0.28-0.05-0.42c-0.05-0.32-0.1-0.7-0.1-1.06c0-0.17-0.03-0.32-0.05-0.44
				l-0.01-0.07l-0.02-0.13c-0.02-0.12-0.05-0.24-0.05-0.35c-0.01-0.17-0.03-0.34-0.05-0.51c-0.01-0.13-0.03-0.26-0.03-0.39
				c0-0.3-0.06-0.61-0.17-0.9c-0.18-0.42-0.4-0.76-0.7-1.03l-0.07-0.06c-0.19-0.16-0.5-0.43-0.96-0.48c-0.3-0.15-0.58-0.2-0.81-0.24
				c-0.12-0.02-0.23-0.04-0.3-0.07c-0.2-0.07-0.4-0.11-0.57-0.14c-0.1-0.02-0.2-0.03-0.27-0.06c-0.25-0.1-0.49-0.12-0.66-0.13
				c-0.05,0-0.11-0.01-0.16-0.02c-0.03,0-0.09-0.02-0.15-0.04c-0.12-0.04-0.24-0.08-0.37-0.1c-0.14-0.03-0.29-0.05-0.43-0.07
				c-0.17-0.02-0.32-0.04-0.42-0.08c-0.27-0.1-0.49-0.11-0.66-0.12c-0.05,0-0.1,0-0.15-0.01c-0.32-0.11-0.68-0.18-1.08-0.19
				c-0.07,0-0.18-0.01-0.22-0.03c-0.47-0.15-0.89-0.17-1.26-0.19l-0.09-0.01c-0.24-0.01-0.47-0.02-0.71-0.02
				c-0.14,0-0.29,0.01-0.44,0.01h-2.04c-0.27,0.01-0.5,0.05-0.72,0.08l-0.16,0.03c-0.12,0.02-0.2,0.04-0.28,0.06
				c-0.15,0.03-0.29,0.07-0.38,0.07c-0.34,0.01-0.66,0.07-0.98,0.19c-0.04,0.01-0.1,0.02-0.15,0.03c-0.21,0.04-0.4,0.1-0.56,0.15
				c-0.13,0.04-0.24,0.08-0.33,0.09c-0.17,0.02-0.32,0.08-0.47,0.19c-0.15,0.02-0.29,0.08-0.37,0.11c-0.02,0.01-0.06,0.03-0.08,0.03
				c-0.41,0.19-0.82,0.38-1.23,0.59c-0.29,0.15-0.62,0.33-0.92,0.54l-0.17,0.13c-0.57,0.42-1.15,0.86-1.67,1.43
				c-0.32,0.35-0.59,0.68-0.8,1c-0.32,0.49-0.54,0.92-0.72,1.35l-0.08,0.19c-0.11,0.29-0.23,0.59-0.33,0.92
				c-0.05,0.2-0.1,0.39-0.15,0.59l-0.07,0.27c-0.1,0.43-0.22,0.98-0.23,1.56l-0.01,0.31c-0.02,0.83-0.04,1.7,0.14,2.59
				c0.01,0.08,0.04,0.18,0.06,0.29c0.02,0.06,0.04,0.11,0.04,0.17c0.1,0.74,0.37,1.38,0.61,1.93c0.05,0.1,0.11,0.22,0.18,0.34
				c0.03,0.05,0.06,0.09,0.08,0.14c0.29,0.61,0.69,1.07,1.05,1.48c0.15,0.18,0.33,0.35,0.48,0.49c0.09,0.08,0.17,0.16,0.26,0.25
				c0.15,0.17,0.32,0.3,0.49,0.41c0.44,0.32,0.84,0.59,1.27,0.83c0.24,0.12,0.46,0.22,0.68,0.33l0.22,0.11
				c0.47,0.23,0.95,0.41,1.31,0.54c0.35,0.14,0.76,0.3,1.18,0.44c0.11,0.03,0.23,0.06,0.35,0.09c0.09,0.03,0.22,0.06,0.26,0.08
				c0.14,0.09,0.32,0.14,0.48,0.14h0.05c0.07,0,0.2,0.04,0.32,0.08c0.15,0.05,0.29,0.1,0.44,0.13c0.21,0.05,0.44,0.11,0.68,0.16
				c0.25,0.06,0.49,0.11,0.74,0.17c0.13,0.04,0.27,0.07,0.42,0.1c0.16,0.02,0.3,0.05,0.4,0.09c0.23,0.1,0.43,0.11,0.56,0.12h0.05
				c0.17,0.06,0.35,0.11,0.52,0.16l0.21,0.06c0.11,0.03,0.21,0.05,0.31,0.08c0.16,0.04,0.31,0.07,0.43,0.12l0.03,0.02
				c0.02,0.01,0.05,0.02,0.07,0.03c-0.38,0.09-0.8,0.13-1.23,0.16c-0.06,0.01-0.11,0.01-0.16,0.01c-0.17,0-0.34-0.02-0.51-0.03
				c-0.22-0.02-0.43-0.04-0.65-0.04c-0.15,0-0.28-0.01-0.38-0.04c-0.02-0.01-0.04-0.02-0.06-0.02c-0.06-0.01-0.12-0.02-0.18-0.03
				l-0.07-0.02c-0.2-0.05-0.39-0.07-0.54-0.08c-0.07,0-0.16-0.01-0.2-0.02c-0.14-0.07-0.34-0.17-0.61-0.17
				c-0.05,0-0.13-0.03-0.19-0.05c-0.08-0.03-0.16-0.06-0.25-0.08c-0.42-0.11-0.87-0.25-1.41-0.44c-0.04-0.02-0.1-0.05-0.15-0.07
				c-0.15-0.07-0.33-0.16-0.54-0.21c-0.23-0.06-0.47-0.16-0.73-0.27c-0.12-0.05-0.24-0.1-0.35-0.15c-0.49-0.19-0.98-0.41-1.45-0.63
				c-0.23-0.09-0.43-0.2-0.64-0.3c-0.33-0.19-0.69-0.35-1.06-0.46c-0.2-0.06-0.4-0.09-0.6-0.09c-0.2,0-0.41,0.03-0.6,0.09
				c-0.46,0.14-0.8,0.44-1.05,0.69c-0.46,0.48-0.55,1.01-0.57,1.37c-0.03,0.36,0,0.7,0.03,1.04c0.01,0.19,0.03,0.39,0.03,0.59
				c0,0.32,0.03,0.62,0.05,0.85c0.05,0.41,0.1,0.83,0.13,1.26c0.02,0.2,0.02,0.38,0.02,0.57c0.01,0.31,0.01,0.63,0.06,0.97
				c0.01,0.05,0.01,0.1,0.01,0.14c0.01,0.17,0.02,0.39,0.12,0.63c-0.01,0-0.01,0.08-0.01,0.13v0.12c0,0.17,0,0.34,0.01,0.51
				l0.01,0.12c0.02,0.21,0.04,0.46,0.09,0.7c0.13,0.53,0.41,0.97,0.83,1.35c0.24,0.22,0.55,0.38,0.92,0.47
				c0.24,0.05,0.48,0.1,0.72,0.15c0.31,0.06,0.6,0.12,0.88,0.2l0.06,0.02c0.12,0.03,0.3,0.09,0.53,0.09c0.05,0,0.16,0.02,0.25,0.05
				c0.09,0.02,0.18,0.04,0.27,0.06c0.19,0.04,0.44,0.09,0.71,0.09c0.06,0,0.18,0.03,0.28,0.05l0.16,0.03l0.12,0.03
				c0.3,0.06,0.65,0.14,1.03,0.14c0.36,0.11,0.75,0.17,1.14,0.18c0.3,0.01,0.59,0.04,0.89,0.07c0.17,0.02,0.33,0.03,0.5,0.05
				c0.19,0.02,0.4,0.03,0.61,0.04c0.18,0.01,0.35,0.02,0.53,0.04c0.14,0.01,0.25,0.01,0.37,0.01c0.1,0,0.19,0,0.29-0.01h0.72
				c0.65,0,1.22-0.02,1.76-0.06c0.01,0,0.02,0,0.03-0.01c0.09,0,0.19-0.01,0.31-0.06c0.04-0.01,0.07-0.01,0.1-0.01
				c0.11,0,0.25-0.01,0.41-0.04h0.06c0.36,0,0.68-0.08,0.96-0.15c0.17-0.04,0.33-0.08,0.47-0.09c0.2-0.02,0.38-0.08,0.51-0.12
				c0.04-0.01,0.09-0.03,0.14-0.04c0.36-0.04,0.7-0.17,1-0.28c0.07-0.03,0.14-0.05,0.21-0.08c0.27-0.09,0.56-0.2,0.84-0.32
				c0.08-0.03,0.18-0.08,0.28-0.13c0.07-0.03,0.16-0.08,0.2-0.09c0.26-0.04,0.46-0.19,0.59-0.28l0.01-0.01
				c0.1-0.02,0.19-0.06,0.27-0.12l0.2-0.13c0.41-0.26,0.83-0.52,1.22-0.89l0.05-0.05c0.64-0.59,1.3-1.21,1.82-2.02l0.13-0.21
				c0.2-0.32,0.42-0.67,0.56-1.1c0.02-0.05,0.05-0.11,0.08-0.18c0.09-0.18,0.21-0.42,0.26-0.71c0.13-0.25,0.17-0.45,0.2-0.59
				c0-0.02,0-0.04,0.01-0.07c0.01-0.11,0.04-0.26,0.08-0.42c0.05-0.17,0.1-0.37,0.13-0.6c0.02-0.12,0.02-0.22,0.02-0.33
				c0-0.06,0-0.11,0.01-0.17c0.07-0.34,0.14-0.74,0.13-1.18v-0.31C109.08,138.81,109.08,138.44,108.99,138.04z M85.66,143.34
				c-0.01-0.09-0.01-0.17,0-0.26c0.01-0.47-0.03-0.95-0.08-1.42c-0.07-0.54-0.09-1.08-0.17-1.62c-0.03-0.22-0.01-0.44,0-0.66
				c0.01-0.29,0.31-0.53,0.59-0.45c0.16,0.04,0.31,0.09,0.46,0.18c0.34,0.19,0.7,0.33,1.05,0.5c0.28,0.13,0.58,0.24,0.85,0.39
				c0.17,0.08,0.35,0.14,0.53,0.2c0.44,0.16,0.85,0.38,1.3,0.51c0.21,0.06,0.41,0.17,0.61,0.24c0.41,0.14,0.82,0.27,1.22,0.4
				c0.49,0.16,0.99,0.26,1.49,0.37c0.6,0.14,1.2,0.24,1.83,0.26c0.48,0.02,0.97,0.06,1.45,0.04c0.81-0.02,1.62-0.1,2.36-0.46
				c0.62-0.31,1.1-0.82,1.01-1.66c-0.04-0.35-0.26-0.62-0.52-0.83c-0.45-0.37-0.99-0.59-1.55-0.74c-0.02,0-0.04,0-0.06-0.01
				c-0.34-0.19-0.75-0.17-1.1-0.34c-0.11-0.05-0.23-0.03-0.34-0.06c-0.63-0.16-1.27-0.26-1.89-0.43c-0.65-0.18-1.32-0.31-1.96-0.53
				c-0.33-0.11-0.66-0.2-0.99-0.3c-0.33-0.11-0.68-0.2-1-0.36c-0.35-0.17-0.74-0.29-1.09-0.46c-0.43-0.22-0.86-0.43-1.26-0.7
				c-0.53-0.34-0.98-0.77-1.41-1.22c-0.51-0.53-0.88-1.16-1.17-1.84c-0.16-0.4-0.29-0.81-0.37-1.22c-0.1-0.5-0.21-0.99-0.19-1.5
				c0.01-0.37,0.01-0.74,0-1.11c0-0.36,0.01-0.71,0.12-1.06c0.04-0.15,0.04-0.31,0.06-0.47c0.07-0.52,0.23-1.02,0.43-1.5
				c0.18-0.45,0.4-0.89,0.7-1.29s0.61-0.78,0.97-1.12c0.38-0.35,0.79-0.65,1.22-0.94c0.31-0.21,0.64-0.37,0.96-0.55
				c0.37-0.2,0.77-0.36,1.17-0.51c0.33-0.13,0.67-0.23,1.01-0.33c0.25-0.07,0.51-0.12,0.76-0.18c0.24-0.07,0.47-0.12,0.71-0.13
				c0.32-0.02,0.62-0.1,0.93-0.14c0.32-0.05,0.63-0.05,0.95-0.05c0.22-0.01,0.44,0,0.67,0c0.28,0,0.57,0.01,0.86-0.01
				c0.47-0.02,0.94,0.09,1.4,0.15c0.22,0.04,0.44,0.05,0.66,0.09c0.28,0.05,0.56,0.17,0.86,0.17c0.46,0.01,0.89,0.24,1.35,0.24
				c0.13,0,0.26,0.09,0.39,0.11c0.5,0.07,0.98,0.21,1.48,0.3c0.57,0.11,1.13,0.27,1.69,0.43c0.25,0.07,0.43,0.24,0.52,0.51
				c0.09,0.26,0.14,0.52,0.16,0.79c0.04,0.57,0.08,1.13,0.19,1.69c0.04,0.26,0.04,0.54,0.06,0.81c0.03,0.54,0.13,1.06,0.19,1.59
				c0.03,0.27,0.02,0.54,0.06,0.82c0.03,0.22,0.08,0.45,0.09,0.68c0.01,0.33-0.19,0.5-0.41,0.67c-0.06,0.06-0.16,0.04-0.24,0
				c-0.32-0.15-0.65-0.29-0.95-0.46c-0.2-0.11-0.4-0.19-0.6-0.28c-0.42-0.17-0.83-0.36-1.25-0.51c-0.43-0.16-0.86-0.32-1.29-0.47
				c-0.41-0.14-0.83-0.28-1.26-0.39c-0.49-0.12-0.98-0.26-1.49-0.35c-0.42-0.07-0.84-0.14-1.27-0.19c-0.55-0.07-1.1-0.03-1.64-0.05
				c-0.57-0.01-1.13,0.06-1.69,0.17c-0.28,0.06-0.55,0.12-0.8,0.27c-0.61,0.35-0.82,0.9-0.59,1.54c0.11,0.34,0.39,0.58,0.7,0.73
				c0.32,0.16,0.65,0.31,0.98,0.4c0.34,0.08,0.65,0.24,0.99,0.31c0.41,0.09,0.81,0.25,1.23,0.35c0.47,0.11,0.96,0.19,1.43,0.31
				c0.45,0.11,0.91,0.15,1.35,0.3c0.31,0.11,0.64,0.17,0.96,0.26c0.38,0.11,0.76,0.22,1.13,0.36c0.23,0.08,0.45,0.15,0.68,0.24
				c0.93,0.35,1.83,0.8,2.61,1.42c0.69,0.55,1.29,1.2,1.74,1.98c0.19,0.34,0.4,0.68,0.52,1.05c0.12,0.34,0.29,0.65,0.31,1.02
				c0,0.21,0.09,0.4,0.13,0.61c0.11,0.71,0.15,1.43,0.09,2.14c-0.02,0.36-0.02,0.71-0.1,1.07c-0.12,0.58-0.25,1.16-0.46,1.72
				c-0.19,0.51-0.45,0.98-0.74,1.44c-0.07,0.11-0.14,0.23-0.23,0.34c-0.26,0.31-0.52,0.62-0.79,0.92c-0.11,0.11-0.19,0.26-0.38,0.25
				c-0.03,0-0.05,0.04-0.07,0.06c-0.19,0.23-0.45,0.39-0.69,0.56c-0.33,0.24-0.67,0.45-1.04,0.61c-0.19,0.09-0.35,0.26-0.59,0.25
				c-0.04-0.01-0.09,0.02-0.11,0.05c-0.1,0.17-0.29,0.17-0.45,0.25c-0.18,0.08-0.37,0.13-0.57,0.13c-0.05,0-0.11,0-0.15,0.02
				c-0.32,0.19-0.68,0.18-1.01,0.29c-0.19,0.07-0.38,0.16-0.58,0.17c-0.2,0.01-0.39,0.04-0.58,0.12c-0.04,0.02-0.08,0.01-0.12,0.01
				c-0.46-0.01-0.91,0.04-1.36,0.09c-0.77,0.08-1.54,0.01-2.31,0.05c-0.25,0.02-0.47-0.08-0.72-0.07c-0.24,0.01-0.48,0.03-0.72-0.04
				c-0.09-0.03-0.19-0.01-0.29-0.01c-0.42,0-0.83-0.03-1.25-0.12c-0.19-0.04-0.39-0.06-0.59-0.07c-0.35-0.02-0.69-0.09-1.02-0.16
				c-0.18-0.04-0.36-0.04-0.53-0.07c-0.45-0.07-0.89-0.16-1.33-0.24c-0.47-0.08-0.95-0.15-1.4-0.32c-0.09-0.04-0.18-0.05-0.28-0.05
				c-0.17,0-0.33-0.06-0.47-0.14c-0.15-0.09-0.25-0.2-0.31-0.38c-0.06-0.22-0.08-0.45-0.12-0.67c-0.07-0.37,0.01-0.74-0.1-1.1
				c-0.01-0.04,0-0.08,0-0.12C85.79,144.18,85.72,143.76,85.66,143.34z"
            />
            <g>
              <path
                fill="white"
                d="M173.49,124.22c-0.08-0.47-0.34-0.89-0.73-1.17l-3.46-2.46l-3.45-2.45c-0.32-0.23-0.68-0.34-1.05-0.34
					c-0.54,0-1.07,0.25-1.42,0.71l-5.43,7.07l-5.43-7.07c-0.35-0.46-0.89-0.71-1.43-0.71c-0.36,0-0.72,0.11-1.04,0.34l-6.91,4.91
					c-0.39,0.28-0.66,0.7-0.73,1.17c-0.08,0.47,0.03,0.96,0.31,1.35l8.48,11.84v10.57c0,0.48,0.2,0.94,0.54,1.28
					c0.34,0.33,0.79,0.52,1.26,0.52h0.03l4.92-0.07l4.92,0.07c0.01,0,0.01,0,0.02,0c0.48,0,0.93-0.19,1.27-0.52
					c0.34-0.34,0.53-0.8,0.53-1.28v-10.57l8.49-11.84C173.46,125.18,173.57,124.69,173.49,124.22z M162.89,147.98l-4.94-0.07
					l-4.95,0.07v-11.15l-8.82-12.31l6.91-4.92l6.86,8.93l6.85-8.93l2.69,1.92l4.22,3l-8.82,12.31V147.98z"
              />
              <path
                fill="white"
                d="M148.25,122.94c-1.59,1.14-2.76,2.24-2.61,2.45s1.56-0.54,3.15-1.69c1.59-1.14,2.76-2.24,2.61-2.45
					S149.84,121.8,148.25,122.94z"
              />
              <path
                fill="white"
                d="M167.55,122.94c-1.59-1.14-3-1.9-3.15-1.69s1.02,1.31,2.61,2.45c1.59,1.14,3,1.9,3.15,1.69S169.14,124.09,167.55,122.94
					z"
              />
            </g>
            <g>
              <path
                fill="white"
                d="M126.54,118.23c-11.77,0-17.25,4.99-17.25,15.72c0,10.77,5.48,15.79,17.25,15.79c11.76,0,17.24-5.02,17.24-15.79
					C143.78,123.22,138.3,118.23,126.54,118.23z M126.54,147.95c-10.69,0-15.45-4.32-15.45-14c0-9.76,4.62-13.92,15.45-13.92
					c10.68,0,15.44,4.29,15.44,13.92C141.98,143.63,137.22,147.95,126.54,147.95z"
              />
              <path
                fill="white"
                d="M126.54,127.31c-6.81,0-7.59,3.79-7.59,6.64c0,2.88,0.78,6.71,7.59,6.71c6.8,0,7.58-3.83,7.58-6.71
					C134.12,131.1,133.34,127.31,126.54,127.31z M126.54,138.86c-5.35,0-5.79-2.53-5.79-4.91c0-2.45,0.44-4.84,5.79-4.84
					c5.34,0,5.78,2.49,5.78,4.84C132.32,136.9,131.34,138.86,126.54,138.86z"
              />
            </g>
          </g>
        </g>
      </g>
    </svg>