<?xml version="1.0" encoding="utf-8"?>
<!-- Generator: Adobe Illustrator 25.0.0, SVG Export Plug-In . SVG Version: 6.00 Build 0)  -->
<svg
	version="1.1"
	id="Layer_1"
	xmlns="http://www.w3.org/2000/svg"
	xmlns:xlink="http://www.w3.org/1999/xlink"
	x="0px"
	y="0px"
	viewBox="0 0 191.25 237.02"
	style="enable-background: new 0 0 191.25 237.02"
	xml:space="preserve"
	width="40%"
	class="md:hidden"
>
      <style type="text/css">
        .st0 {
          fill: none;
          stroke: #1e2c32;
          stroke-miterlimit: 10;
        }
        .st1 {
          fill: #ff0057;
        }
        .st2 {
          fill: none;
          stroke: #f6931d;
          stroke-width: 6;
          stroke-linecap: round;
          stroke-miterlimit: 10;
        }
        .st3 {
          fill: #f6931d;
        }
        .st4 {
          fill: none;
          stroke: #f6931d;
          stroke-width: 8;
          stroke-miterlimit: 10;
        }
        .st5 {
          fill: #ffffff;
        }
      </style>
      <path
        class="st1"
        d="M152.63,111.45c3.46-3.53,5.38-8.21,5.38-13.2c0-5.04-1.96-9.78-5.52-13.34l-3.84-3.86
	c-3.59-3.57-8.33-5.53-13.36-5.53c-0.71,0-1.42,0.04-2.12,0.12c0.06-0.86,0.09-1.74,0.09-2.61c0-20.74-16.88-37.62-37.62-37.62
	c-0.96,0-1.8,0.03-2.57,0.08C72.67,36.87,56.96,54.64,58.06,75.1c0.01,0.18,0.02,0.36,0.03,0.54c-0.7-0.08-1.41-0.12-2.12-0.12
	c-5.04,0-9.78,1.96-13.34,5.52l-3.85,3.87c-3.55,3.54-5.52,8.28-5.52,13.33c0,4.97,1.9,9.65,5.37,13.18
	c-3.96,8.39-6.04,17.7-6.04,27.14c0,34.75,28.28,63.03,63.05,63.03c34.75,0,63.03-28.27,63.03-63.03
	C158.66,129.14,156.59,119.83,152.63,111.45z"
      />
      <g>
        <path
          class="st5"
          d="M103.67,100.15c-1.03-0.21-2.04,0.45-2.25,1.48c-0.21,1.03,0.45,2.04,1.48,2.25c9.62,2,17.66,7.91,22.67,15.83
		l-3.63,2.02c-0.92,0.51-1.25,1.67-0.74,2.59c0.35,0.63,1,0.98,1.67,0.98c0.31,0,0.63-0.08,0.93-0.24l3.64-2.03
		c2.33,4.74,3.65,10.02,3.65,15.55c0,5.53-1.32,10.81-3.65,15.54l-3.64-2.03c-0.92-0.51-2.08-0.18-2.59,0.74
		c-0.51,0.92-0.18,2.08,0.74,2.59l3.63,2.03c-5,7.92-13.05,13.83-22.67,15.83c-1.03,0.21-1.69,1.22-1.48,2.25
		c0.19,0.9,0.98,1.52,1.86,1.52c0.13,0,0.26-0.01,0.39-0.04c18.09-3.77,31.21-19.93,31.21-38.43
		C134.88,120.07,121.76,103.91,103.67,100.15z"
        />
        <path
          class="st5"
          d="M88.36,103.88c1.03-0.21,1.69-1.22,1.48-2.25c-0.21-1.03-1.22-1.69-2.25-1.48
		c-18.08,3.77-31.2,19.93-31.2,38.43c0,18.49,13.12,34.65,31.2,38.43c0.13,0.03,0.26,0.04,0.39,0.04c0.88,0,1.68-0.62,1.86-1.52
		c0.22-1.03-0.45-2.04-1.48-2.25c-9.62-2.01-17.66-7.92-22.66-15.84l3.63-2.02c0.92-0.51,1.25-1.67,0.74-2.59
		c-0.51-0.92-1.67-1.25-2.59-0.74l-3.64,2.03c-2.33-4.73-3.64-10.01-3.64-15.54c0-5.53,1.32-10.81,3.65-15.54l3.63,2.03
		c0.29,0.16,0.61,0.24,0.93,0.24c0.67,0,1.32-0.35,1.67-0.98c0.51-0.92,0.18-2.08-0.74-2.59l-3.62-2.02
		C70.7,111.79,78.74,105.88,88.36,103.88z"
        />
        <path
          class="st5"
          d="M95.63,114.11c1.05,0,1.9-0.85,1.9-1.9v-10.02c0-1.05-0.85-1.9-1.9-1.9c-1.05,0-1.9,0.85-1.9,1.9v10.02
		C93.72,113.26,94.57,114.11,95.63,114.11z"
        />
        <path
          class="st5"
          d="M95.63,163.03c-1.05,0-1.9,0.85-1.9,1.9v10.02c0,1.05,0.85,1.9,1.9,1.9c1.05,0,1.9-0.85,1.9-1.9v-10.02
		C97.53,163.88,96.68,163.03,95.63,163.03z"
        />
        <path
          class="st5"
          d="M49.3,103.66c0.93,0.93,2.44,0.93,3.37,0l8.71-8.71c0.93-0.93,0.93-2.44,0-3.37l-1.3-1.3
		c-2.27-2.27-5.95-2.27-8.22,0L48,94.14c-2.27,2.27-2.27,5.95,0,8.22L49.3,103.66z"
        />
        <path
          class="st5"
          d="M138.58,103.66c0.93,0.93,2.44,0.93,3.37,0l1.3-1.3c2.27-2.27,2.27-5.95,0-8.22l-3.85-3.85
		c-2.27-2.27-5.95-2.27-8.22,0l-1.3,1.3c-0.93,0.93-0.93,2.44,0,3.37L138.58,103.66z"
        />
        <path
          class="st5"
          d="M106.37,89.75V76.26H84.88v13.49c-22.87,4.99-39.24,25.17-39.24,48.82c0,27.56,22.42,49.98,49.98,49.98
		c27.56,0,49.98-22.42,49.98-49.98C145.6,114.92,129.24,94.73,106.37,89.75z M95.63,183.29c-24.66,0-44.73-20.06-44.73-44.72
		c0-21.83,15.58-40.36,37.06-44.07l2.18-0.38V81.52h10.97v12.61l2.18,0.38c21.47,3.7,37.05,22.24,37.05,44.07
		C140.35,163.23,120.29,183.29,95.63,183.29z"
        />
        <path
          class="st5"
          d="M91.49,59.27c-3.45,0-6.25,2.8-6.25,6.25v5.75h20.77v-6.88c0-2.83-2.29-5.12-5.12-5.12H91.49z"
        />
        <path
          class="st5"
          d="M74.61,85.78c0.81,1.33,2.63,1.62,3.85,0.66c1.06-0.83,1.3-2.3,0.61-3.45c-1.81-2.99-2.76-6.39-2.76-9.95
		c0-11.03,9.3-19.93,20.47-19.27c10.52,0.62,18.76,9.98,18.11,20.5c-0.19,3.11-1.12,6.08-2.72,8.73c-0.69,1.15-0.45,2.62,0.61,3.45
		c1.23,0.96,3.04,0.67,3.85-0.66c2.33-3.83,3.55-8.18,3.55-12.74c0-14.1-11.94-25.46-26.24-24.51C80.7,49.42,70.38,61.15,71.1,74.41
		C71.32,78.47,72.51,82.34,74.61,85.78z"
        />
        <circle class="st5" cx="95.63" cy="139.84" r="5.4" />
      </g>
      <g>
        <g>
          <path
            class="st5"
            d="M117.59,132.14l-6.63,4.42c-0.27,0.21-1.51-1.11-2.93-3.07l-11.45,8.58l-2.76-4.15l12.34-7.25
			c-1.27-2.07-2.02-3.7-1.73-3.89l6.61-4.42c0.36-0.24,2.11,1.76,3.91,4.47C116.77,129.54,117.93,131.92,117.59,132.14z"
          />
        </g>
      </g>
      <g>
        <g>
          <path
            class="st5"
            d="M73.66,132.14l6.63,4.42c0.27,0.21,1.51-1.11,2.93-3.07l11.45,8.58l2.76-4.15l-12.34-7.25
			c1.27-2.07,2.02-3.7,1.73-3.89l-6.61-4.42c-0.36-0.24-2.11,1.76-3.91,4.47C74.48,129.54,73.32,131.92,73.66,132.14z"
          />
        </g>
      </g>
    </svg>