<svg width="371" height="98" viewBox="0 0 371 98" fill="none" xmlns="http://www.w3.org/2000/svg">
<path d="M255.629 22.42C256.159 22.33 256.689 22.22 257.219 22.15C288.379 17.94 319.269 10.98 349.509 1.27C350.099 1.08 350.669 0.840004 351.289 0.770004C351.399 1.18 351.499 1.59 351.629 1.99C357.889 21.27 364.149 40.55 370.419 59.82C370.739 60.8 370.949 61.77 370.859 62.84C370.699 64.95 368.649 67.51 366.279 68.23C365.489 68.47 364.729 68.79 363.849 68.83C360.899 68.95 359.049 67.65 357.679 65.62C357.589 68.88 356.029 71.4 352.209 72.45C348.759 73.39 346.279 72.21 344.409 69.67C344.189 72.57 342.839 74.74 339.759 75.87C338.169 76.45 336.529 76.65 334.919 76.23C333.329 75.81 332.319 74.75 331.329 73.51C330.669 76.61 328.949 78.72 325.479 79.48C322.889 80.05 320.299 79.51 318.029 76.57C317.519 79.69 315.689 81.81 312.089 82.49C308.599 83.14 306.249 81.81 304.589 79.13C304.199 80.56 303.959 81.91 302.889 82.97C301.829 84.03 300.609 84.83 299.019 85.16C297.479 85.48 295.979 85.53 294.549 85.01C293.139 84.49 292.039 83.65 291.479 82.4C290.959 82.47 291.019 82.79 290.949 82.99C290.079 85.47 288.259 86.99 285.359 87.62C282.119 88.32 279.179 86.66 278.019 84.44C277.989 84.39 277.909 84.37 277.819 84.31C277.609 84.92 277.479 85.55 277.169 86.11C275.859 88.47 273.699 89.7 270.729 89.86C269.039 89.95 267.569 89.58 266.339 88.65C265.079 87.7 264.359 86.44 264.049 84.99C263.979 84.68 263.959 84.36 263.919 84.04C261.269 63.98 258.609 43.92 255.949 23.86C255.889 23.37 255.939 22.85 255.629 22.42ZM308.419 61.91C308.199 61.93 308.079 62.07 307.969 62.23C307.459 63.01 306.949 63.78 306.439 64.56C305.459 66.06 304.649 67.62 304.019 69.25C303.769 69.89 303.579 70.56 303.639 71.24C303.699 72.02 304.059 72.42 304.829 72.61C305.609 72.8 306.229 72.55 306.739 71.99C307.099 71.59 307.359 71.14 307.519 70.65C308.479 67.76 308.649 64.84 308.409 61.9C308.429 61.88 308.449 61.86 308.469 61.84C308.479 61.83 308.489 61.81 308.499 61.79C308.469 61.83 308.449 61.87 308.419 61.91ZM346.249 9.23C346.149 9.28 346.039 9.32 345.969 9.39C344.119 11.19 342.339 13.07 340.819 15.15C340.089 16.15 339.439 17.2 339.139 18.41C338.959 19.12 339.099 19.76 339.729 20.21C340.349 20.66 341.039 20.65 341.719 20.31C342.299 20.02 342.719 19.56 343.059 19.03C343.719 17.98 344.309 16.9 344.699 15.74C345.229 14.18 345.679 12.6 346.049 11C346.179 10.42 346.439 9.84 346.239 9.22C346.269 9.2 346.299 9.19001 346.309 9.17C346.319 9.16 346.319 9.13 346.319 9.11C346.299 9.15 346.279 9.19 346.249 9.23ZM315.759 44.52C315.879 44.73 316.039 44.67 316.189 44.68C318.149 44.82 320.129 44.8 322.109 44.71C325.009 44.58 327.899 44.31 330.719 43.45C331.829 43.11 332.869 42.64 333.699 41.83C334.859 40.72 334.599 38.92 333.209 38.2C332.549 37.86 331.839 37.87 331.119 37.9C329.219 37.97 327.489 38.69 325.759 39.38C322.939 40.49 320.269 41.91 317.609 43.35C316.959 43.7 316.249 43.98 315.759 44.52ZM306.679 46.75C303.279 46.47 299.899 46.32 296.499 46.43C294.719 46.49 292.949 46.63 291.209 47.02C290.389 47.2 289.609 47.48 288.889 47.9C287.969 48.43 287.479 49.2 287.629 50.23C287.779 51.23 288.359 51.89 289.399 52.2C290.319 52.47 291.269 52.47 292.219 52.36C293.979 52.16 295.679 51.67 297.339 51.11C300.259 50.12 303.049 48.81 305.779 47.42C306.089 47.24 306.519 47.16 306.679 46.75ZM313.859 42.26C314.149 42.33 314.259 42.15 314.389 42.04C316.759 40.14 318.959 38.08 320.979 35.88C322.299 34.44 323.519 32.92 324.409 31.2C324.779 30.49 325.059 29.76 325.099 28.96C325.119 28.45 325.009 27.99 324.679 27.58C323.859 26.57 322.519 26.34 321.329 27.01C320.799 27.31 320.369 27.69 319.969 28.12C318.799 29.41 318.019 30.92 317.299 32.46C316.189 34.81 315.349 37.25 314.579 39.72C314.309 40.57 313.939 41.39 313.859 42.26ZM310.339 42.14C310.419 41.63 310.489 41.28 310.519 40.93C310.839 37.79 310.969 34.65 310.739 31.52C310.649 30.29 310.519 29.06 310.149 27.87C309.899 27.09 309.599 26.34 309.099 25.69C308.499 24.9 307.579 24.34 306.199 24.75C305.169 25.06 304.659 25.66 304.499 26.87C304.469 27.08 304.449 27.29 304.449 27.5C304.419 29.08 304.819 30.58 305.329 32.05C306.029 34.08 306.919 36.04 307.909 37.95C308.629 39.33 309.329 40.72 310.339 42.14ZM307.209 43.95C306.829 43.49 306.589 43.19 306.329 42.89C304.529 40.84 302.579 38.92 300.519 37.12C299.409 36.15 298.259 35.21 296.949 34.48C295.959 33.93 294.939 33.48 293.759 33.38C292.339 33.27 290.809 34.83 291.179 36.19C291.419 37.06 291.979 37.68 292.629 38.25C293.829 39.31 295.269 40.04 296.759 40.7C299.449 41.9 302.269 42.84 305.149 43.64C305.729 43.8 306.329 44.04 307.209 43.95ZM315.429 48.13C315.459 48.35 315.449 48.43 315.489 48.48C315.589 48.63 315.699 48.77 315.819 48.9C318.669 51.96 321.679 54.88 325.429 57.07C326.459 57.67 327.579 58.14 328.839 58.26C330.069 58.38 331.119 57.89 331.749 56.95C332.299 56.14 332.209 55.08 331.389 54.22C330.259 53.03 328.789 52.32 327.279 51.66C324.869 50.61 322.329 49.88 319.789 49.18C318.389 48.79 316.989 48.38 315.429 48.13ZM308.289 49.98C307.939 50.24 307.599 50.48 307.279 50.74C305.139 52.47 303.069 54.28 301.099 56.19C299.749 57.5 298.529 58.91 297.489 60.46C297.079 61.08 296.729 61.72 296.549 62.42C296.039 64.31 297.599 65.72 299.689 65.25C300.419 65.09 300.979 64.7 301.489 64.24C302.659 63.18 303.529 61.92 304.269 60.61C306.109 57.37 307.369 53.94 308.459 50.47C308.489 50.33 308.509 50.19 308.289 49.98ZM312.249 49.97C312.159 50.44 312.109 50.65 312.079 50.86C311.749 53.47 311.589 56.08 311.589 58.7C311.589 60.65 311.809 62.58 312.329 64.46C312.529 65.18 312.859 65.85 313.309 66.45C314.269 67.75 316.029 67.74 317.239 66.89C318.059 66.31 318.159 65.45 318.209 64.65C318.309 63.21 317.939 61.83 317.469 60.5C316.799 58.65 316.019 56.83 315.099 55.08C314.229 53.43 313.379 51.77 312.249 49.97ZM331.109 47.99C331.559 48.48 332.009 48.52 332.369 48.7C334.619 49.85 336.969 50.83 339.439 51.58C340.889 52.03 342.369 52.37 343.939 52.45C344.679 52.49 345.409 52.44 346.139 52.2C347.069 51.9 347.559 51.27 347.779 50.46C348.009 49.63 347.599 49.01 346.919 48.55C346.649 48.37 346.329 48.24 346.019 48.12C344.989 47.73 343.889 47.58 342.769 47.49C339.849 47.26 336.929 47.44 333.999 47.69C333.099 47.77 332.189 47.88 331.109 47.99ZM328.979 35.06C329.709 35.06 330.209 34.68 330.749 34.43C333.819 32.99 336.869 31.49 339.499 29.37C340.349 28.69 341.159 27.96 341.629 26.99C341.929 26.38 342.149 25.78 341.729 25.08C341.059 23.94 339.529 23.75 338.539 24.26C337.219 24.93 336.139 25.88 335.119 26.9C333.839 28.19 332.729 29.6 331.679 31.06C330.759 32.33 329.789 33.59 328.979 35.06ZM296.209 55.99C294.129 56.69 292.259 57.39 290.439 58.18C288.289 59.11 286.169 60.09 284.249 61.42C283.559 61.9 282.919 62.44 282.449 63.1C281.929 63.83 281.719 64.62 282.319 65.38C282.899 66.11 283.689 66.47 284.739 66.26C285.199 66.17 285.649 66.06 286.069 65.85C286.969 65.39 287.819 64.89 288.599 64.27C291.419 62.03 293.709 59.38 295.829 56.61C295.929 56.46 296.019 56.29 296.209 55.99ZM294.729 42.98C293.829 42.24 292.799 41.82 291.849 41.29C289.559 40 287.209 38.82 284.679 38C283.619 37.66 282.539 37.47 281.419 37.47C280.319 37.47 279.429 38.04 279.089 38.96C278.709 39.99 278.939 40.59 279.969 41.31C280.949 41.99 282.079 42.31 283.249 42.55C286.279 43.17 289.389 43.18 292.499 43.19C293.189 43.2 293.929 43.3 294.729 42.98ZM344.969 7.67C344.849 7.48 344.689 7.54 344.559 7.54C341.759 7.53 338.989 7.81 336.249 8.33C335.179 8.54 334.149 8.92 333.259 9.57C332.679 10 332.289 10.52 332.449 11.29C332.659 12.28 333.279 12.74 334.399 12.72C336.049 12.68 337.519 11.99 338.959 11.29C340.659 10.46 342.299 9.53 343.849 8.44C344.229 8.18 344.669 8.01 344.969 7.67ZM348.929 9.03C348.879 9.34 348.829 9.48 348.839 9.62C348.849 11.38 348.839 13.15 349.009 14.9C349.149 16.38 349.339 17.84 349.869 19.24C350.119 19.92 350.509 20.49 351.059 20.97C351.449 21.31 351.899 21.37 352.399 21.28C353.489 21.07 354.069 20.39 353.969 19.25C353.899 18.41 353.779 17.56 353.409 16.78C352.839 15.57 352.319 14.34 351.619 13.19C350.809 11.85 349.999 10.49 348.929 9.03ZM264.369 25.67C267.329 26.31 270.319 26.51 273.329 26.35C274.239 26.3 275.129 26.12 275.969 25.72C276.919 25.26 277.229 24.6 276.989 23.63C276.809 22.91 276.279 22.58 275.619 22.43C274.919 22.28 274.189 22.26 273.469 22.37C272.149 22.57 270.869 22.97 269.609 23.4C267.809 24.01 266.039 24.7 264.369 25.67ZM261.319 28.67C261.009 30.12 260.879 31.41 260.759 32.71C260.569 34.78 260.479 36.85 260.849 38.91C260.949 39.48 261.129 40 261.439 40.48C261.809 41.05 262.299 41.41 263.089 41.29C263.859 41.17 264.399 40.81 264.639 40.1C264.819 39.56 264.869 39 264.819 38.43C264.659 36.84 264.259 35.32 263.689 33.83C263.029 32.12 262.299 30.45 261.319 28.67ZM263.809 27.79C265.519 30.28 267.399 32.59 269.779 34.48C270.429 35 271.169 35.39 271.989 35.63C272.929 35.9 273.719 35.65 274.239 34.93C274.669 34.34 274.589 33.61 274.029 32.87C273.659 32.38 273.159 32.03 272.659 31.67C270.739 30.29 268.559 29.41 266.369 28.56C265.539 28.25 264.739 27.86 263.809 27.79ZM302.619 34.15C302.119 33.04 301.749 32.13 301.309 31.25C300.449 29.5 299.559 27.78 298.229 26.3C297.869 25.9 297.479 25.53 296.989 25.29C296.349 24.97 295.729 24.99 295.149 25.46C294.569 25.94 294.479 26.54 294.679 27.2C294.729 27.37 294.829 27.52 294.909 27.67C295.229 28.31 295.709 28.84 296.199 29.36C297.039 30.24 297.959 31.04 298.949 31.76C300.049 32.58 301.119 33.44 302.619 34.15ZM320.539 58.97C320.439 59.31 320.559 59.49 320.649 59.68C321.059 60.5 321.439 61.34 321.889 62.14C322.749 63.69 323.659 65.22 324.949 66.52C325.419 66.99 325.969 67.37 326.629 67.59C327.369 67.84 328.069 67.66 328.579 67.12C329.079 66.6 329.159 66.05 328.839 65.44C328.369 64.54 327.659 63.83 326.879 63.16C324.979 61.55 322.799 60.27 320.539 58.97ZM285.259 50.78C282.749 50.36 280.269 50.21 277.769 50.31C276.529 50.36 275.259 50.48 274.139 51.13C273.469 51.52 273.249 52.02 273.379 52.77C273.499 53.44 273.859 53.77 274.639 53.92C275.089 54.01 275.539 53.99 275.999 53.94C278.309 53.7 280.449 52.9 282.559 52.05C283.489 51.69 284.399 51.31 285.259 50.78ZM336.859 39.08C337.599 39.24 338.219 39.16 338.819 39.13C341.409 39.04 343.999 38.84 346.499 37.99C346.979 37.83 347.429 37.63 347.829 37.33C348.359 36.94 348.629 36.46 348.459 35.83C348.269 35.1 347.859 34.71 347.099 34.63C346.569 34.58 346.049 34.61 345.519 34.75C344.449 35.04 343.409 35.41 342.409 35.89C340.519 36.79 338.699 37.79 336.859 39.08ZM313.889 31.35C315.569 28.97 316.909 26.46 317.729 23.74C317.929 23.07 318.019 22.36 317.839 21.64C317.689 21.04 317.299 20.75 316.739 20.59C316.159 20.42 315.649 20.56 315.249 21.01C314.809 21.5 314.499 22.07 314.329 22.7C313.979 23.98 313.789 25.27 313.749 26.58C313.699 28.18 313.709 29.76 313.889 31.35ZM311.729 48.32C312.949 48.04 313.659 47.01 313.399 45.88C313.149 44.78 312.039 44.15 310.829 44.42C309.639 44.69 308.919 45.74 309.169 46.85C309.419 47.97 310.509 48.6 311.729 48.32ZM309.499 78.32C309.699 79.33 310.799 79.97 311.949 79.75C313.099 79.53 313.899 78.5 313.709 77.49C313.499 76.36 312.479 75.79 311.189 76.08C309.949 76.36 309.279 77.23 309.499 78.32ZM364.149 62.15C362.919 62.53 362.309 63.49 362.639 64.54C362.949 65.54 364.099 66.08 365.239 65.74C366.369 65.41 367.069 64.28 366.759 63.3C366.449 62.31 365.289 61.81 364.149 62.15ZM270.779 83.33C269.589 83.47 268.649 84.4 268.779 85.38C268.919 86.41 269.819 87.17 271.199 87.05C272.269 86.96 273.109 85.96 273.019 84.97C272.929 83.87 271.999 83.19 270.779 83.33ZM324.159 73.16C323.069 73.28 322.309 74.66 322.539 75.39C322.859 76.42 323.679 77.05 325.139 76.76C326.239 76.54 326.979 75.38 326.709 74.4C326.419 73.38 325.349 72.86 324.159 73.16ZM297.659 78.83C296.429 79.06 295.729 79.96 295.939 81.03C296.139 82.06 297.259 82.74 298.359 82.51C299.439 82.29 300.319 81.15 300.129 80.24C299.919 79.24 298.829 78.61 297.659 78.83ZM336.159 72.1C336.449 73.19 337.489 73.72 338.669 73.38C339.779 73.06 340.439 71.97 340.149 70.95C339.859 69.94 338.859 69.49 337.689 69.76C336.609 70.01 335.779 71.06 336.159 72.1ZM349.319 68.53C349.389 69.44 350.689 70.06 351.909 69.74C352.869 69.49 353.679 68.19 353.429 67.36C353.119 66.35 351.979 65.83 350.819 66.16C349.599 66.5 349.009 67.42 349.319 68.53ZM286.639 82.66C286.429 81.57 285.459 81 284.219 81.24C283.009 81.47 282.419 82.35 282.559 83.49C282.679 84.44 284.059 85.1 284.949 84.92C286.099 84.69 286.839 83.72 286.639 82.66ZM356.489 60.6C354.529 60.55 352.879 60.74 351.229 61.04C350.709 61.13 350.259 61.42 349.819 61.68C349.509 61.87 349.359 62.2 349.439 62.55C349.529 62.92 349.779 63.15 350.219 63.22C350.629 63.28 351.009 63.17 351.399 63.07C353.179 62.6 354.699 61.66 356.489 60.6ZM275.219 78.46C275.529 77.29 275.719 76.14 275.759 74.97C275.789 74.22 275.749 73.48 275.399 72.79C275.159 72.32 274.859 72.2 274.379 72.28C273.879 72.36 273.589 72.65 273.529 73.07C273.479 73.49 273.369 73.92 273.489 74.34C273.909 75.77 274.399 77.17 275.219 78.46ZM276.889 79.95C278.849 80.11 280.609 80.31 282.409 79.98C282.799 79.91 283.189 79.85 283.539 79.63C283.919 79.39 284.059 79.11 283.989 78.72C283.909 78.31 283.609 78.13 283.209 78.03C283.059 78 282.889 78.02 282.739 78.03C280.689 78.23 278.839 78.94 276.889 79.95ZM357.379 58.62C357.539 57.39 357.349 56.29 357.239 55.18C357.169 54.43 357.029 53.72 356.579 53.1C356.249 52.66 355.889 52.5 355.429 52.64C354.979 52.78 354.799 53.11 354.759 53.67C354.709 54.35 355.069 54.88 355.319 55.45C355.809 56.59 356.489 57.62 357.379 58.62ZM356.029 59.32C356.069 59.2 356.139 59.1 356.109 59.08C354.959 57.93 353.649 56.95 352.099 56.25C351.799 56.11 351.449 56.05 351.079 56.12C350.409 56.25 350.129 56.67 350.349 57.23C350.509 57.65 350.869 57.9 351.279 58.09C352.759 58.77 354.379 59.09 356.029 59.32ZM276.589 78.19C276.869 78.31 276.959 78.27 277.069 78.2C278.229 77.51 279.129 76.56 280.189 75.77C280.559 75.5 280.719 75.06 280.889 74.66C281.039 74.31 281.049 73.97 280.689 73.7C280.369 73.46 279.919 73.42 279.489 73.66C279.079 73.89 278.769 74.22 278.489 74.58C277.629 75.69 277.249 76.98 276.589 78.19ZM286.119 32C286.279 32.81 287.079 33.35 287.899 33.2C288.759 33.04 289.399 32.07 289.199 31.24C289.039 30.56 288.169 30.07 287.399 30.22C286.439 30.4 285.929 31.1 286.119 32ZM294.489 67.37C293.569 67.52 292.909 68.35 293.059 69.17C293.199 69.96 294.069 70.5 294.939 70.34C295.839 70.17 296.549 69.28 296.389 68.52C296.229 67.76 295.359 67.23 294.489 67.37ZM336.529 60.8C337.469 60.55 338.039 59.7 337.819 58.88C337.629 58.16 336.669 57.73 335.799 57.96C334.779 58.23 334.289 58.96 334.539 59.84C334.749 60.59 335.649 61.03 336.529 60.8ZM327.909 22.4C327.699 21.62 326.859 21.1 326.069 21.29C325.459 21.43 324.639 22.27 324.889 23.1C325.129 23.92 325.989 24.47 326.819 24.24C327.669 24 328.129 23.24 327.909 22.4ZM296.719 20.26C296.569 19.55 295.909 19.08 295.229 19.2C294.549 19.31 293.949 20.15 294.099 20.78C294.239 21.4 295.019 21.88 295.689 21.76C296.389 21.63 296.869 20.93 296.719 20.26ZM362.459 57.75C363.329 57.49 363.719 56.9 363.519 56.17C363.309 55.38 362.629 55.08 361.729 55.36C360.989 55.59 360.459 56.37 360.719 56.98C361.019 57.67 361.509 58.05 362.459 57.75ZM266.689 46.74C266.599 45.97 265.919 45.46 265.149 45.59C264.409 45.71 263.939 46.33 264.029 47.06C264.119 47.78 264.759 48.25 265.499 48.16C266.259 48.07 266.779 47.44 266.689 46.74ZM267.549 52.58C267.439 51.86 266.799 51.38 266.059 51.48C265.289 51.58 264.769 52.26 264.889 53.02C265.009 53.72 265.689 54.18 266.429 54.06C267.169 53.94 267.659 53.29 267.549 52.58ZM354.239 26.66C353.999 25.96 353.279 25.58 352.569 25.8C351.849 26.02 351.449 26.74 351.659 27.43C351.859 28.12 352.609 28.5 353.319 28.29C354.039 28.08 354.459 27.32 354.239 26.66ZM319.159 15.05C319.329 15.72 320.049 16.13 320.739 15.94C321.429 15.75 321.829 15.06 321.659 14.38C321.479 13.67 320.829 13.26 320.129 13.41C319.409 13.56 318.969 14.3 319.159 15.05ZM315.709 15.9C315.559 15.21 314.849 14.75 314.159 14.9C313.479 15.05 313.039 15.76 313.189 16.45C313.349 17.16 314.019 17.6 314.719 17.45C315.409 17.31 315.859 16.6 315.709 15.9ZM357.849 38.13C357.649 37.4 356.829 36.97 356.109 37.21C355.399 37.44 354.999 38.16 355.199 38.86C355.409 39.6 356.049 39.93 356.839 39.71C357.609 39.5 358.039 38.82 357.849 38.13ZM302.729 18.96C302.589 18.23 301.959 17.8 301.239 17.92C300.559 18.03 300.079 18.74 300.199 19.43C300.329 20.13 301.009 20.6 301.709 20.47C302.419 20.34 302.869 19.67 302.729 18.96ZM356.029 32.35C355.789 31.61 355.009 31.26 354.229 31.53C353.559 31.76 353.209 32.55 353.449 33.24C353.659 33.85 354.409 34.19 355.089 33.99C355.819 33.77 356.249 33.01 356.029 32.35ZM290.729 21.54C290.659 20.94 289.859 20.32 289.259 20.4C288.609 20.49 288.019 21.22 288.069 21.86C288.119 22.48 288.879 23.06 289.559 22.99C290.209 22.92 290.799 22.18 290.729 21.54ZM308.689 17.54C308.529 16.89 307.869 16.45 307.249 16.57C306.509 16.71 306.019 17.45 306.199 18.17C306.369 18.85 307.059 19.26 307.779 19.11C308.459 18.95 308.869 18.25 308.689 17.54ZM270.289 71.37C270.189 70.61 269.599 70.2 268.759 70.3C267.919 70.41 267.429 70.96 267.519 71.7C267.599 72.43 268.249 72.88 269.049 72.78C269.879 72.68 270.389 72.09 270.289 71.37ZM269.599 76.21C268.799 76.32 268.269 76.92 268.359 77.63C268.459 78.4 269.039 78.79 269.899 78.69C270.709 78.59 271.239 77.99 271.149 77.27C271.059 76.56 270.399 76.11 269.599 76.21ZM359.629 43.79C359.429 43.09 358.709 42.75 357.949 42.98C357.169 43.21 356.759 43.88 356.959 44.58C357.179 45.31 357.829 45.64 358.629 45.4C359.409 45.16 359.829 44.48 359.629 43.79ZM268.089 65.89C268.879 65.78 269.379 65.17 269.279 64.45C269.179 63.73 268.539 63.29 267.739 63.41C266.949 63.52 266.449 64.11 266.549 64.84C266.649 65.54 267.309 66 268.089 65.89ZM268.409 58.5C268.279 57.8 267.609 57.38 266.829 57.52C266.059 57.65 265.589 58.27 265.719 59C265.839 59.7 266.519 60.12 267.299 59.99C268.069 59.84 268.539 59.21 268.409 58.5ZM359.009 51.19C359.179 51.87 359.929 52.25 360.699 52.05C361.429 51.86 361.919 51.07 361.719 50.42C361.519 49.79 360.799 49.44 360.089 49.62C359.309 49.82 358.839 50.51 359.009 51.19ZM346.829 6.61C347.019 7.2 347.679 7.55 348.279 7.38C348.909 7.2 349.269 6.48 349.049 5.84C348.839 5.23 348.199 4.9 347.599 5.09C346.909 5.31 346.599 5.91 346.829 6.61ZM261.119 26.79C261.779 26.71 262.269 26.15 262.209 25.57C262.149 25 261.379 24.44 260.809 24.54C260.209 24.65 259.699 25.29 259.789 25.85C259.879 26.44 260.479 26.86 261.119 26.79Z" fill="#7331A6"/>
<path d="M234.009 25.33C201.559 28.28 168.899 28.27 136.449 25.31C136.419 25.65 136.389 26 136.359 26.34C136.459 26.43 136.449 26.59 136.429 26.93C134.559 47.47 132.689 68.01 130.809 88.56C130.739 89.23 130.769 89.91 130.959 90.57C131.909 93.92 135.609 96.16 139.749 95.24C140.329 95.11 140.849 94.93 141.349 94.62C142.249 94.06 143.009 93.42 143.629 92.63C144.179 91.91 144.359 91.96 144.869 92.79C145.199 93.3 145.429 93.85 145.899 94.31C146.859 95.26 148.079 95.79 149.409 96.1C150.719 96.4 152.129 96.52 153.369 96.19C154.939 95.76 156.379 94.98 157.099 93.55C157.329 93.1 157.629 92.67 157.969 92.08C158.389 93.56 159.229 94.62 160.269 95.6C160.629 95.94 160.979 96.25 161.539 96.35C161.929 96.43 162.309 96.58 162.689 96.67C165.519 97.33 168.509 96.68 170.249 94.52C170.859 93.77 171.139 92.91 171.549 91.96C172.569 95.42 174.909 97.37 179.089 97.21C180.029 97.17 180.979 97.03 181.769 96.62C182.589 96.19 183.349 95.63 183.859 94.89C184.309 94.26 185.169 93.86 185.089 92.9C185.309 93.07 185.439 93.13 185.479 93.21C186.019 94.69 187.329 95.64 188.579 96.64C188.719 96.75 188.929 96.86 189.109 96.86C189.609 96.86 190.039 97.08 190.519 97.15C193.269 97.56 195.609 96.96 197.399 94.98C197.999 94.32 198.269 93.52 198.809 92.77C199.249 93.49 199.619 94.15 200.089 94.76C200.869 95.79 201.779 96.59 203.279 96.68C203.399 96.69 203.519 96.74 203.629 96.76C206.949 97.58 210.319 96.03 211.709 93.4C211.879 93.08 211.979 92.73 212.339 92.51C212.659 92.82 212.819 93.21 213.059 93.56C213.649 94.42 214.419 95.21 215.419 95.6C216.339 95.96 217.339 96.28 218.419 96.33C221.209 96.47 223.429 95.6 224.939 93.5C225.239 93.09 225.379 92.6 225.599 92.15C225.729 91.91 225.779 91.61 226.119 91.54C226.359 91.95 226.529 92.39 226.849 92.72C227.309 93.19 227.509 93.86 228.119 94.2C229.159 94.77 230.259 95.2 231.519 95.36C235.799 95.9 239.319 93.23 239.749 89.63C239.809 89.14 239.729 88.64 239.679 88.15C237.969 68.96 235.789 44.99 234.009 25.33ZM230.389 30.96C230.389 30.95 230.389 30.95 230.389 30.94C230.409 30.94 230.419 30.94 230.439 30.94C230.459 30.91 230.489 30.88 230.509 30.86C230.499 30.88 230.499 30.92 230.489 30.93C230.479 30.94 230.459 30.94 230.439 30.94C230.429 30.95 230.419 30.96 230.419 30.97C230.409 30.96 230.399 30.96 230.389 30.96C230.479 31.41 230.179 31.75 229.989 32.11C228.899 34.11 227.609 36.01 226.209 37.82C224.229 40.37 222.009 42.74 219.569 44.94C218.869 45.58 218.079 46.1 217.159 46.43C216.359 46.72 215.589 46.67 214.969 46.14C214.309 45.57 213.999 44.84 214.259 43.95C214.529 43 215.049 42.2 215.699 41.47C217.649 39.28 219.909 37.43 222.359 35.79C224.819 34.14 227.389 32.66 229.909 31.14C230.069 31.04 230.209 30.95 230.389 30.96ZM217.799 67.49C218.379 67.55 218.929 67.67 219.439 67.95C220.399 68.48 221.249 69.11 222.079 69.8C225.939 73.03 228.609 77.06 231.329 81.08C231.669 81.58 231.689 82.22 232.269 82.61C232.379 82.68 232.259 82.79 232.179 82.87C232.129 82.92 232.029 82.99 231.989 82.97C231.769 82.9 231.549 82.82 231.349 82.72C226.789 80.46 222.699 77.65 219.019 74.41C218.019 73.53 217.019 72.64 216.239 71.59C215.799 71 215.449 70.38 215.399 69.63C215.149 68.47 216.649 67.37 217.799 67.49ZM216.769 58.49C216.739 57.27 217.909 56.12 219.269 56.04C220.669 55.96 221.989 57.02 222.059 58.28C222.139 59.57 220.959 60.8 219.569 60.87C218.089 60.95 216.809 59.85 216.769 58.49ZM209.739 30.81C210.399 30.43 211.129 30.21 211.869 30.1C215.329 29.59 218.799 29.29 222.309 29.42C223.409 29.46 224.499 29.54 225.639 29.73C225.509 29.85 225.449 29.94 225.349 29.99C222.609 31.14 219.899 32.43 217.009 33.26C215.259 33.75 213.479 34.07 211.659 34.1C211.069 34.11 210.509 34.03 209.959 33.81C209.309 33.55 208.909 33.1 208.849 32.38C208.789 31.65 209.129 31.17 209.739 30.81ZM207.869 47.43C208.729 47.47 209.109 48.12 208.699 48.83C208.519 49.15 208.249 49.39 207.929 49.58C205.789 50.83 203.479 51.72 201.039 52.32C200.729 52.39 200.409 52.43 200.079 52.37C200.079 52.37 200.069 52.38 200.059 52.39C200.019 52.42 199.989 52.45 199.949 52.48C199.979 52.44 199.999 52.41 200.029 52.37C200.039 52.37 200.059 52.38 200.079 52.38C201.919 50.52 203.959 48.92 206.369 47.77C206.839 47.53 207.339 47.41 207.869 47.43ZM205.959 59.18C206.409 59.27 206.829 59.43 207.219 59.64C207.829 59.96 208.159 60.43 208.109 61.12C208.059 61.77 207.659 62.15 207.089 62.42C206.239 62.82 205.319 62.85 204.399 62.79C201.129 62.57 198.049 61.68 195.049 60.55C193.779 60.07 192.529 59.57 191.189 59.04C192.939 58.33 194.599 57.64 196.249 56.96C198.259 56.14 200.309 55.41 202.449 54.99C203.519 54.78 204.579 54.56 205.689 54.56C206.269 54.56 206.809 54.66 207.329 54.9C208.419 55.41 208.599 56.56 207.699 57.35C207.069 57.9 206.279 58.15 205.469 58.35C204.889 58.49 204.309 58.6 203.629 58.74C204.479 58.9 205.219 59.04 205.959 59.18ZM201.209 31.1C201.959 31.07 202.519 31.56 202.559 32.28C202.599 33.02 202.099 33.58 201.369 33.64C200.579 33.7 199.969 33.15 199.959 32.38C199.949 31.63 200.429 31.13 201.209 31.1ZM195.159 31.24C195.889 31.25 196.449 31.78 196.459 32.5C196.469 33.26 195.859 33.83 195.069 33.78C194.349 33.75 193.839 33.18 193.859 32.44C193.879 31.65 194.329 31.23 195.159 31.24ZM187.969 31.32C188.759 31.31 189.279 31.77 189.309 32.52C189.339 33.25 188.819 33.82 188.099 33.87C187.319 33.92 186.709 33.36 186.699 32.6C186.689 31.88 187.239 31.34 187.969 31.32ZM184.999 38.31C185.199 38.45 185.369 38.62 185.539 38.77C185.809 38.71 185.919 38.5 186.089 38.37C186.889 37.77 187.899 37.93 188.439 38.77C188.799 39.32 188.909 39.94 188.929 40.59C189.019 42.97 188.589 45.29 187.889 47.57C187.379 49.23 186.769 50.85 186.139 52.47C185.949 52.95 185.809 53.45 185.639 53.95C185.119 52.43 184.469 51.04 183.949 49.61C183.239 47.6 182.659 45.57 182.369 43.47C182.209 42.31 182.219 41.14 182.309 39.98C182.349 39.47 182.549 39.02 182.859 38.62C183.389 37.94 184.299 37.82 184.999 38.31ZM181.939 31.32C182.679 31.34 183.209 31.88 183.199 32.61C183.189 33.34 182.639 33.87 181.899 33.87C181.139 33.87 180.539 33.26 180.579 32.51C180.629 31.78 181.179 31.3 181.939 31.32ZM175.709 31.25C176.499 31.26 177.089 31.82 177.069 32.56C177.049 33.25 176.459 33.8 175.739 33.8C174.959 33.79 174.369 33.22 174.369 32.47C174.369 31.8 174.989 31.24 175.709 31.25ZM169.679 31.1C170.399 31.13 170.959 31.69 170.969 32.38C170.979 33.08 170.289 33.68 169.539 33.65C168.829 33.61 168.239 33.02 168.259 32.35C168.279 31.61 168.899 31.07 169.679 31.1ZM147.319 29.39C149.889 29.22 152.439 29.46 154.989 29.65C156.389 29.75 157.779 29.94 159.139 30.3C159.549 30.41 159.969 30.57 160.339 30.77C160.939 31.09 161.409 31.56 161.339 32.27C161.269 33.03 160.819 33.58 160.049 33.82C159.679 33.94 159.269 34.05 158.879 34.05C158.009 34.04 157.129 34.01 156.269 33.89C154.069 33.58 151.959 32.95 149.909 32.11C148.149 31.39 146.389 30.65 144.639 29.9C145.539 29.45 146.439 29.46 147.319 29.39ZM140.959 31.56C144.189 33.48 147.459 35.34 150.419 37.68C151.929 38.87 153.329 40.18 154.589 41.62C155.159 42.28 155.579 43.02 155.859 43.84C156.149 44.68 155.889 45.4 155.299 45.98C154.689 46.58 153.899 46.7 153.039 46.41C152.169 46.12 151.419 45.65 150.769 45.08C148.159 42.79 145.859 40.26 143.769 37.55C142.479 35.87 141.319 34.11 140.239 32.3C140.029 31.94 139.899 31.56 139.709 31.16C140.259 31.06 140.629 31.36 140.959 31.56ZM150.989 60.89C149.899 60.83 148.409 59.76 148.489 58.3C148.559 56.99 149.819 56.02 151.239 56.01C152.429 56.01 153.899 57.26 153.679 58.57C153.759 59.88 152.259 60.96 150.989 60.89ZM137.449 44.36C137.399 42.59 137.579 40.84 137.709 39.08C137.799 37.88 138.109 36.71 138.299 35.53C138.319 35.39 138.379 35.26 138.619 35.14C139.689 38.23 140.879 41.24 141.499 44.42C141.829 46.13 142.039 47.84 141.799 49.58C141.749 49.97 141.649 50.34 141.449 50.68C141.089 51.29 140.579 51.6 139.809 51.58C139.069 51.57 138.629 51.18 138.319 50.61C137.909 49.87 137.759 49.07 137.689 48.26C137.559 46.97 137.489 45.67 137.449 44.36ZM136.629 68.14C136.819 66.82 136.999 65.49 137.389 64.19C137.559 63.61 137.799 63.06 138.209 62.58C138.909 61.75 140.159 61.73 140.879 62.55C141.359 63.09 141.539 63.73 141.529 64.43C141.489 66.71 140.969 68.9 140.139 71.03C139.269 73.29 138.139 75.44 137.089 77.63C137.009 77.8 136.969 78.05 136.619 78.1C136.269 77.12 136.319 76.1 136.259 75.1C136.139 72.78 136.309 70.45 136.629 68.14ZM139.549 90.75C139.459 91.89 138.499 92.58 137.189 92.45C136.029 92.33 135.149 91.36 135.269 90.35C135.389 89.33 136.449 88.59 137.609 88.69C138.569 88.78 139.729 89.62 139.549 90.75ZM141.539 81.48C140.809 81.88 140.009 82.15 139.249 82.49C139.069 82.57 138.889 82.62 138.689 82.59C138.419 82.54 138.299 82.29 138.469 82.06C140.539 79.22 142.379 76.25 144.669 73.56C146.309 71.64 148.119 69.87 150.279 68.42C151.089 67.87 151.939 67.39 152.929 67.53C154.689 67.64 155.589 68.97 154.959 70.43C154.519 71.46 153.779 72.32 152.929 73.1C149.509 76.29 145.769 79.15 141.539 81.48ZM151.209 93.41C149.959 93.36 148.969 92.42 149.049 91.38C149.119 90.39 150.179 89.59 151.339 89.64C152.499 89.68 153.459 90.59 153.429 91.61C153.399 92.63 152.379 93.46 151.209 93.41ZM160.499 83.92C159.709 84.5 158.709 84.69 157.739 84.8C153.909 85.24 150.049 85.23 146.199 84.85C145.049 84.74 143.919 84.55 142.799 84.13C144.139 83.71 145.469 83.29 146.799 82.87C149.409 82.06 152.039 81.35 154.779 81.01C156.109 80.84 157.439 80.74 158.789 80.86C159.309 80.9 159.799 81 160.249 81.26C161.389 81.88 161.519 83.16 160.499 83.92ZM162.419 48.35C162.609 47.96 162.929 47.75 163.379 47.73C163.959 47.71 164.469 47.94 164.969 48.17C166.319 48.78 167.539 49.59 168.669 50.53C169.509 51.22 170.399 51.86 171.139 52.68C170.819 52.87 170.519 52.78 170.239 52.71C167.909 52.13 165.689 51.31 163.619 50.14C163.229 49.92 162.879 49.66 162.589 49.33C162.339 49.03 162.229 48.72 162.419 48.35ZM165.889 58.39C165.069 58.21 164.299 57.95 163.599 57.49C162.429 56.73 162.879 55.33 163.849 54.88C164.359 54.64 164.919 54.56 165.489 54.57C167.239 54.6 168.919 54.99 170.579 55.44C173.229 56.15 175.719 57.27 178.229 58.34C178.699 58.54 179.239 58.63 179.649 59.02C178.289 59.35 177.079 59.95 175.819 60.42C173.629 61.21 171.439 62.02 169.089 62.39C168.039 62.56 166.979 62.69 165.929 62.78C165.129 62.85 164.319 62.78 163.569 62.45C162.959 62.18 162.509 61.79 162.449 61.1C162.389 60.36 162.779 59.9 163.439 59.58C164.359 59.12 165.369 58.99 166.389 58.85C166.609 58.82 166.839 58.81 167.169 58.78C166.689 58.55 166.289 58.48 165.889 58.39ZM161.939 69.97C161.779 69.57 161.889 69.19 162.239 68.91C162.499 68.7 162.759 68.48 163.069 68.34C165.529 67.23 168.099 66.46 170.799 66.03C170.949 66.01 171.099 66.01 171.239 66.2C169.129 67.8 167.039 69.45 164.399 70.36C163.919 70.53 163.449 70.62 162.929 70.59C162.439 70.57 162.099 70.37 161.939 69.97ZM164.699 94.02C163.529 93.95 162.619 93.05 162.689 92.02C162.629 91.03 163.919 90.17 164.939 90.25C166.089 90.33 167.049 91.25 166.979 92.26C166.909 93.29 165.879 94.09 164.699 94.02ZM167.029 86.2C166.269 86.12 165.769 85.51 165.839 84.75C165.899 84.05 166.569 83.52 167.349 83.57C168.149 83.62 168.769 84.29 168.689 85.03C168.609 85.78 167.869 86.3 167.029 86.2ZM173.969 86.39C173.159 86.4 172.469 85.75 172.509 85.03C172.549 84.31 173.159 83.76 173.929 83.75C174.749 83.74 175.389 84.34 175.369 85.11C175.359 85.83 174.759 86.38 173.969 86.39ZM178.639 94.34C177.449 94.34 176.489 93.49 176.489 92.45C176.489 91.43 177.469 90.57 178.639 90.57C179.809 90.57 180.779 91.42 180.799 92.46C180.809 93.47 179.819 94.34 178.639 94.34ZM180.749 86.48C179.959 86.5 179.229 85.85 179.239 85.14C179.249 84.52 179.969 83.86 180.689 83.84C181.379 83.81 182.149 84.44 182.209 85.08C182.269 85.74 181.519 86.46 180.749 86.48ZM187.439 86.49C186.669 86.5 185.909 85.79 185.949 85.12C185.989 84.48 186.739 83.84 187.449 83.85C188.159 83.86 188.909 84.51 188.929 85.13C188.939 85.88 188.279 86.48 187.439 86.49ZM188.639 78.69C188.199 80.02 186.829 80.38 185.599 79.52C185.509 79.46 185.419 79.39 185.299 79.29C184.919 79.52 184.629 79.87 184.139 79.96C183.129 80.15 182.189 79.63 181.929 78.65C181.779 78.07 181.649 77.48 181.689 76.87C181.819 74.53 182.279 72.25 183.059 70.03C183.549 68.62 184.049 67.21 184.639 65.83C184.879 65.28 185.029 64.7 185.279 63.94C186.309 66.96 187.589 69.65 188.289 72.52C188.659 74.04 188.859 75.57 188.899 77.13C188.909 77.67 188.799 78.19 188.639 78.69ZM194.099 92.39C194.129 93.54 193.249 94.34 191.939 94.34C190.759 94.34 189.799 93.49 189.799 92.46C189.799 91.44 190.759 90.61 191.919 90.56C192.899 90.51 194.209 91.4 194.099 92.39ZM195.329 86.41C194.489 86.45 193.819 85.87 193.809 85.12C193.799 84.43 194.439 83.81 195.179 83.78C195.949 83.75 196.749 84.41 196.749 85.08C196.739 85.72 196.039 86.38 195.329 86.41ZM197.879 74.47C196.289 73.36 195.009 71.99 193.789 70.57C191.419 67.8 189.709 64.67 187.969 61.57C187.729 61.14 187.489 60.7 187.219 60.22C186.129 60.92 185.069 61.06 183.949 60.39C183.259 61.48 182.549 62.49 181.939 63.57C181.339 64.65 180.719 65.73 180.049 66.77C179.259 68 178.419 69.2 177.489 70.35C176.949 71.01 176.459 71.71 175.739 72.24C175.389 72.5 175.119 72.86 174.819 73.18C173.839 74.2 172.629 74.97 171.169 75.38C170.239 75.65 169.589 75.23 169.029 74.68C168.489 74.15 168.429 73.52 168.689 72.81C169.119 71.68 169.889 70.77 170.739 69.91C172.089 68.55 173.439 67.19 174.959 66C176.669 64.66 178.289 63.21 180.169 62.05C181.109 61.47 181.999 60.8 182.969 60.25C183.309 60.06 183.469 59.84 183.239 59.46C183.139 59.29 183.069 59.04 183.109 58.85C183.279 58 182.739 57.61 182.069 57.18C177.649 54.37 173.909 50.89 170.689 46.96C170.139 46.29 169.709 45.55 169.499 44.7C169.119 43.13 170.499 41.88 172.119 42.32C172.839 42.52 173.469 42.88 174.029 43.37C175.989 45.07 177.609 47.03 179.029 49.17C180.579 51.51 181.899 53.97 183.239 56.42C183.339 56.6 183.379 56.83 183.679 56.95C184.949 56.09 186.209 56.1 187.489 57.3C188.189 56.02 188.819 54.85 189.449 53.69C190.759 51.3 192.139 48.95 193.879 46.81C194.919 45.52 195.969 44.23 197.319 43.22C197.819 42.84 198.359 42.54 198.949 42.33C199.809 42.02 200.569 42.28 201.189 42.85C201.729 43.34 201.859 43.97 201.669 44.7C201.439 45.58 200.979 46.34 200.419 47.04C198.469 49.47 196.209 51.64 193.829 53.71C192.139 55.17 190.329 56.52 188.359 57.65C187.989 57.86 187.829 58.12 187.849 58.52C187.859 58.72 187.839 58.95 187.759 59.14C187.479 59.75 187.669 59.94 188.209 60.26C191.569 62.18 194.559 64.54 197.419 67.06C198.719 68.21 199.979 69.41 201.149 70.68C201.779 71.36 202.269 72.11 202.519 72.99C202.909 74.39 201.529 75.71 199.959 75.4C199.179 75.25 198.509 74.91 197.879 74.47ZM202.019 86.26C201.169 86.29 200.489 85.71 200.479 84.97C200.469 84.33 201.159 83.67 201.879 83.62C202.629 83.57 203.429 84.25 203.429 84.93C203.429 85.6 202.749 86.23 202.019 86.26ZM205.909 94.03C204.729 94.08 203.709 93.3 203.629 92.27C203.549 91.22 204.559 90.27 205.769 90.26C206.959 90.25 207.949 91.05 207.989 92.06C208.029 93.09 207.089 93.97 205.909 94.03ZM201.899 66.71C201.539 66.45 201.209 66.16 200.829 65.86C201.309 65.63 201.729 65.73 202.129 65.81C204.389 66.27 206.569 66.92 208.659 67.85C209.079 68.04 209.479 68.24 209.789 68.57C210.079 68.88 210.259 69.21 210.029 69.63C209.789 70.06 209.379 70.27 208.899 70.23C208.369 70.19 207.839 70.07 207.329 69.88C205.289 69.14 203.579 67.94 201.899 66.71ZM219.509 93.41C218.239 93.48 217.339 92.77 217.269 91.66C217.209 90.62 218.129 89.7 219.269 89.64C220.459 89.59 221.479 90.36 221.539 91.39C221.599 92.42 220.669 93.35 219.509 93.41ZM218.249 85.14C216.189 85.14 214.129 85.02 212.109 84.67C211.449 84.56 210.809 84.39 210.229 84.06C209.659 83.74 209.229 83.3 209.289 82.7C209.349 82 209.749 81.41 210.539 81.14C211.679 80.75 212.849 80.78 214.039 80.86C217.979 81.1 221.659 82.21 225.339 83.38C226.149 83.64 226.949 83.9 227.759 84.17C224.619 85.01 221.429 85.14 218.249 85.14ZM233.329 92.47C232.319 92.56 231.019 91.87 231.039 90.79C230.949 89.71 231.869 88.78 233.069 88.7C234.219 88.63 235.259 89.42 235.339 90.43C235.419 91.45 234.499 92.37 233.329 92.47ZM234.279 75.25C234.219 76.21 234.259 77.2 233.879 78.23C233.289 77.62 233.099 76.93 232.779 76.31C231.619 74.05 230.519 71.77 229.789 69.35C229.289 67.71 229.039 66.04 229.019 64.34C229.019 63.73 229.159 63.16 229.559 62.64C230.089 61.98 231.349 61.66 232.169 62.46C232.689 62.96 232.939 63.58 233.149 64.22C233.539 65.44 233.689 66.71 233.879 67.96C234.239 70.37 234.429 72.81 234.279 75.25ZM232.679 43.3C232.689 44.88 232.649 46.47 232.479 48.05C232.379 48.93 232.269 49.8 231.829 50.6C231.379 51.43 230.889 51.7 230.049 51.64C229.249 51.58 228.669 51.07 228.409 50.26C228.089 49.23 228.149 48.17 228.229 47.12C228.399 44.72 229.019 42.4 229.799 40.11C230.289 38.67 230.799 37.23 231.299 35.79C231.359 35.62 231.419 35.46 231.729 35.28C231.889 35.93 232.069 36.5 232.159 37.08C232.469 39.14 232.679 41.22 232.679 43.3ZM234.009 25.31C234.009 25.32 234.009 25.32 234.009 25.33C234.039 25.33 234.079 25.32 234.109 25.32C234.109 25.31 234.109 25.31 234.109 25.3C234.079 25.3 234.039 25.31 234.009 25.31Z" fill="#7331A6"/>
<path d="M115.039 21.61C114.969 21.99 114.879 22.37 114.819 22.75C114.349 26.22 113.889 29.69 113.439 33.17C113.379 33.66 113.189 34 112.789 34.38C110.649 36.45 109.209 38.9 109.149 41.92C109.109 44.04 109.699 46.06 110.859 47.88C111.319 48.61 111.329 49.26 111.209 50C111.159 50.32 110.989 50.51 110.639 50.55C110.459 50.57 110.269 50.62 110.089 50.67C108.449 51.13 107.989 52.64 108.459 53.77C108.739 54.44 109.119 55.07 109.999 55.21C110.249 55.25 110.459 55.42 110.429 55.64C110.339 56.43 110.399 57.23 109.659 57.87C107.349 59.88 106.179 62.43 106.169 65.38C106.169 67.23 106.649 69.04 107.639 70.69C108.159 71.55 108.269 72.38 108.129 73.34C107.619 76.84 107.189 80.35 106.719 83.86C106.289 87.03 103.849 88.88 100.499 89.09C98.2689 89.23 96.2089 88.5 94.7089 86.82C93.8789 85.89 93.3089 84.88 93.1189 83.72C93.0889 83.55 92.9989 83.39 92.8889 83.08C92.4389 84.06 91.8689 84.81 91.1189 85.45C89.6389 86.69 87.8489 87.17 85.7489 86.94C84.1089 86.76 82.6889 86.11 81.4789 85.2C80.5589 84.51 79.9589 83.51 79.5789 82.46C79.4689 82.17 79.4789 81.8 78.9489 81.64C78.4389 82.13 78.0989 82.78 77.5089 83.27C76.7389 83.9 75.8789 84.24 74.8389 84.4C73.8489 84.55 72.8789 84.64 71.8589 84.45C69.8889 84.08 68.3989 83.03 67.0789 81.75C66.5189 81.2 66.3189 80.49 66.0989 79.8C65.9189 79.23 65.6389 79.2 65.2289 79.63C65.1789 79.68 65.1189 79.73 65.0689 79.79C64.0589 81.14 62.4989 81.73 60.7689 82.02C59.7189 82.2 58.5389 82.19 57.5989 81.72C55.2189 80.52 53.2089 78.98 52.9189 76.37C52.9089 76.24 52.8089 76.11 52.6889 75.84C50.7089 78.51 47.9789 79.68 44.3989 78.51C41.2089 77.47 39.7089 75.23 39.4989 72.07C38.6189 73.43 37.7589 74.45 36.3789 75.02C34.9489 75.61 33.4389 75.72 31.8389 75.41C30.2489 75.1 29.0389 74.27 27.9189 73.22C26.7589 72.13 26.4889 70.79 26.0689 69.29C24.0389 71.6 21.5389 72.66 18.2589 71.66C14.9989 70.66 13.3889 68.49 13.0789 65.37C12.6189 65.81 12.2789 66.1 11.9789 66.42C10.5489 67.98 7.24891 68.69 4.48891 67.53C1.84891 66.41 0.398909 64.53 0.0389092 62.05C-0.0510908 61.46 0.0189092 60.85 0.208909 60.27C1.42891 56.54 2.63891 52.8 3.83891 49.06C3.97891 48.63 4.22891 48.35 4.61891 48.09C5.88891 47.26 6.96891 46.28 7.77891 45.04C9.39891 42.53 9.77891 39.83 8.95891 36.9C8.81891 36.41 8.76891 35.91 8.49891 35.45C8.36891 35.24 8.40891 35.03 8.47891 34.83C8.55891 34.59 8.64891 34.36 8.69891 34.12C8.85891 33.32 9.18891 32.81 10.2189 32.7C12.0689 32.49 12.6289 29.93 11.1489 28.79C10.6589 28.41 10.5689 28.09 10.8089 27.62C10.8689 27.5 10.9189 27.36 10.9389 27.22C11.0889 26.33 11.6389 25.74 12.3689 25.2C15.4289 22.94 16.5189 19.84 16.2689 16.18C16.1989 15.22 16.1089 14.26 15.7289 13.36C15.5389 12.9 15.7189 12.52 15.8489 12.13C17.0489 8.43 18.2489 4.73 19.4489 1.02C19.5589 0.69 19.7389 0.37 19.6989 0C21.6789 0.64 23.6589 1.27 25.6389 1.89C25.5289 2.04 25.6289 2.17 25.7089 2.27C26.9289 3.89 28.4689 5.16 30.3489 5.97C32.9889 7.1 35.6889 6.96 38.3489 6.19C38.5289 6.14 38.7789 6.09 38.8089 5.82C39.7589 6.08 40.7089 6.34 41.6589 6.6C41.3889 6.95 41.4289 7.29 41.6089 7.68C42.0189 8.57 42.7389 9.02 43.6889 9.15C44.7989 9.3 45.6789 8.76 45.9589 7.78C46.9089 7.76 47.7789 8.08 48.6789 8.31C48.8289 8.35 48.9289 8.43 48.9689 8.58C48.8889 8.71 48.8689 8.85 48.9789 8.97C49.2189 9.23 49.4689 9.49 49.7289 9.74C50.7489 10.76 51.9389 11.58 53.2989 12.09C56.0089 13.12 58.7489 12.96 61.4489 12.14C61.6489 12.08 61.7489 11.97 61.7389 11.77C61.9189 11.56 62.1289 11.68 62.3289 11.72C65.2289 12.4 68.1289 13.07 71.0389 13.7C71.3589 13.77 71.6589 13.87 71.9189 14.07C71.7389 14.28 71.8389 14.47 71.9889 14.63C73.3389 16.03 74.9189 17.13 76.8089 17.71C79.4189 18.51 81.9889 18.25 84.4689 17.23C84.7189 17.13 85.0589 17.15 85.1689 16.82C85.2489 16.77 85.3489 16.66 85.4189 16.67C86.2389 16.82 87.0689 16.99 87.8889 17.15C87.9389 17.16 87.9589 17.26 87.9989 17.31C87.9089 17.47 87.8589 17.64 87.8989 17.81C88.2389 19.19 89.2989 19.79 90.6289 19.61C91.4989 19.49 92.2989 19.16 92.3989 18.11C92.4889 18 92.6089 17.95 92.7689 17.97C93.5589 18.11 94.3489 18.25 95.1489 18.38C95.2989 18.41 95.3989 18.48 95.4489 18.62C95.3789 18.76 95.3589 18.89 95.4789 19.01C96.7789 20.26 98.2789 21.24 100.029 21.73C102.799 22.52 105.509 22.08 108.119 21.05C108.319 20.97 108.409 20.86 108.369 20.65C108.489 20.48 108.659 20.5 108.849 20.53C110.739 20.81 112.639 21.07 114.529 21.32C114.729 21.36 114.959 21.35 115.039 21.61ZM55.6189 62.68C55.8489 62.56 55.9589 62.52 56.0389 62.46C56.1789 62.35 56.3189 62.22 56.4389 62.09C58.4689 59.88 59.8789 57.42 60.0789 54.41C60.1889 52.7 60.0289 51.04 59.3189 49.42C58.9389 48.57 58.6689 48.5 57.9389 49.1C57.0689 49.81 56.3189 50.62 55.6589 51.52C54.9489 52.48 54.5089 53.57 54.2689 54.68C53.9589 56.07 53.9089 57.53 54.2489 58.97C54.5389 60.23 54.8989 61.47 55.6189 62.68ZM64.6889 33.54C65.0089 32.36 64.9489 31.16 64.9289 29.97C64.9089 28.69 64.5989 27.45 64.2289 26.22C64.0489 25.63 63.7889 25.58 63.2889 25.99C62.2489 26.83 61.3189 27.78 60.6489 28.9C59.3089 31.13 58.8489 33.54 59.3489 36.12C59.5689 37.24 59.9789 38.32 60.4689 39.37C60.5989 39.66 60.8189 39.75 61.0989 39.54C61.1889 39.48 61.2489 39.39 61.3289 39.32C63.1189 37.74 64.0789 35.73 64.6889 33.54ZM15.0389 28.37C15.7889 28.45 16.7289 28.57 17.6689 28.55C19.9089 28.52 21.9389 27.92 23.8189 26.87C25.4889 25.93 26.8689 24.7 27.9889 23.21C28.3389 22.75 28.2289 22.5 27.6389 22.45C24.3489 22.17 21.2189 22.45 18.3489 24.11C16.8189 25 15.5589 26.13 14.5289 27.51C14.1589 28.01 14.2089 28.12 15.0389 28.37ZM46.9989 11.33C46.7189 11.28 46.5789 11.36 46.5289 11.56C46.4589 11.83 46.3489 12.11 46.3389 12.39C46.2489 14.53 46.5389 16.62 47.5789 18.56C48.7689 20.78 50.4289 22.63 52.5889 24.05C52.7689 24.17 52.9489 24.36 53.1789 24.26C53.4489 24.13 53.4189 23.85 53.4089 23.61C53.3689 22.52 53.3689 21.44 53.1789 20.35C52.5089 16.58 50.6389 13.62 47.3089 11.55C47.1789 11.46 47.0689 11.38 46.9989 11.33ZM38.9489 10.42C39.2089 9.66 39.0889 9.49 38.3989 9.43C38.3289 9.42 38.2589 9.42 38.1789 9.42C36.3989 9.54 34.6789 9.91 33.0789 10.7C30.2989 12.08 28.4489 14.31 26.9489 16.88C26.7589 17.21 26.8789 17.45 27.2589 17.48C27.6589 17.51 28.0689 17.51 28.4689 17.46C31.5189 17.06 34.2689 16.03 36.4589 13.95C37.5589 12.9 38.3389 11.64 38.9489 10.42ZM55.2789 46.97C54.7789 46.67 54.2689 46.62 53.7289 46.6C50.8689 46.53 48.2589 47.12 45.8689 48.56C44.1689 49.59 42.7789 50.87 41.6489 52.4C41.2189 52.99 41.3389 53.22 42.0889 53.24C44.5289 53.31 46.9189 53.18 49.1689 52.27C51.8989 51.18 53.9489 49.47 55.2789 46.97ZM106.489 56.32C106.129 56.03 105.799 56.05 105.509 56.04C104.019 56.02 102.579 56.23 101.179 56.69C99.1289 57.36 97.4389 58.51 95.9089 59.88C94.8489 60.83 94.0189 61.96 93.3089 63.16C93.1089 63.5 93.2789 63.73 93.6789 63.71C95.6489 63.61 97.5789 63.4 99.4089 62.73C102.739 61.51 105.209 59.49 106.489 56.32ZM93.1989 22.29C93.1289 23.61 93.3289 25.01 93.8089 26.34C94.9989 29.66 97.3889 32.05 100.519 33.79C100.959 34.03 101.209 33.87 101.179 33.36C101.149 32.91 101.039 32.46 100.989 32C100.599 28.52 99.1589 25.57 96.4389 23.24C95.6689 22.58 94.7989 22.09 93.8989 21.63C93.4889 21.42 93.3389 21.52 93.2389 21.98C93.2389 22.05 93.2289 22.12 93.1989 22.29ZM106.239 48.67C107.069 48.83 107.259 48.69 107.169 48C107.119 47.62 106.999 47.24 106.889 46.87C106.279 44.82 105.209 43.02 103.599 41.5C101.889 39.9 99.8989 38.78 97.6889 37.97C97.1589 37.78 96.9089 37.96 97.0289 38.51C97.1689 39.17 97.3389 39.83 97.5789 40.45C98.5789 42.98 100.059 45.22 102.429 46.84C103.629 47.66 104.949 48.26 106.239 48.67ZM47.3289 27.68C47.3789 29.03 47.6489 30.21 48.0389 31.35C49.1089 34.54 51.1589 37.05 54.2689 38.74C54.8589 39.06 55.4589 39.38 56.1489 39.5C56.4889 39.56 56.6489 39.43 56.6689 39.13C56.6789 38.96 56.6489 38.78 56.6389 38.61C56.3889 36.05 55.2089 33.83 53.5289 31.84C51.9089 29.93 49.7889 28.72 47.3289 27.68ZM77.7089 34.57C77.2689 34.56 76.9789 34.56 76.6889 34.55C75.1989 34.51 73.7289 34.64 72.3189 35.02C70.0489 35.63 68.0489 36.71 66.3889 38.33C65.6389 39.06 65.0389 39.89 64.5089 40.77C64.2589 41.19 64.3389 41.34 64.8089 41.45C65.0289 41.5 65.2589 41.56 65.4789 41.57C67.2989 41.65 69.0889 41.42 70.7489 40.79C73.1789 39.87 75.1089 38.31 76.6689 36.36C77.0789 35.85 77.4389 35.3 77.7089 34.57ZM65.0389 45.34C65.0989 45.51 65.1189 45.58 65.1489 45.64C65.1889 45.7 65.2389 45.76 65.2989 45.81C68.6489 48.53 72.5089 49.84 76.8889 49.32C77.8989 49.2 78.8689 48.89 79.7989 48.52C80.2189 48.35 80.2789 48.19 80.0489 47.88C79.9589 47.76 79.8689 47.64 79.7589 47.55C78.4089 46.47 76.9489 45.56 75.2589 45.1C73.7689 44.7 72.2489 44.35 70.6889 44.37C68.7589 44.41 66.8689 44.6 65.0389 45.34ZM64.0289 48.84C63.1889 48.62 63.0189 48.73 63.0189 49.43C63.0189 49.53 63.0389 49.64 63.0589 49.75C63.2489 51.21 63.7289 52.61 64.4989 53.91C66.2389 56.83 69.0089 58.74 72.2489 60.1C72.7889 60.33 73.1189 60.12 72.9989 59.6C72.8289 58.87 72.5989 58.15 72.3589 57.43C71.3289 54.43 69.4789 51.97 66.6589 50.16C65.7989 49.61 64.8689 49.17 64.0289 48.84ZM13.2289 35.53C12.4189 35.26 12.2589 35.36 12.2389 36.06C12.2389 36.1 12.2489 36.13 12.2589 36.17C12.3789 39.09 13.5789 41.69 15.6989 43.94C17.0789 45.41 18.7489 46.6 20.6289 47.5C21.0689 47.71 21.1789 47.68 21.2689 47.3C21.3189 47.09 21.3489 46.89 21.2989 46.67C21.0689 45.72 20.9389 44.76 20.6389 43.83C19.8689 41.43 18.4789 39.34 16.5289 37.59C15.5389 36.71 14.4089 36 13.2289 35.53ZM85.6789 21.32C85.8589 20.55 85.7189 20.35 85.0189 20.41C84.4189 20.46 83.8089 20.59 83.2289 20.74C79.9689 21.59 77.5589 23.53 75.7489 26.26C75.2289 27.05 74.7789 27.89 74.4089 28.77C74.2089 29.25 74.3289 29.46 74.8189 29.45C74.9589 29.45 75.1089 29.41 75.2489 29.38C76.3189 29.15 77.3689 28.92 78.3889 28.52C80.9689 27.51 83.0389 25.94 84.5089 23.68C85.0089 22.91 85.4189 22.09 85.6789 21.32ZM14.5089 31.84C15.3789 33.38 17.8189 35.04 19.5689 35.75C22.6489 37 25.8489 37.34 29.0789 36.75C29.2289 36.72 29.3789 36.7 29.5189 36.66C29.6889 36.6 29.7189 36.46 29.6389 36.32C29.5689 36.2 29.4589 36.09 29.3489 35.99C27.4889 34.26 25.3089 33.03 22.9089 32.12C21.5889 31.62 20.1889 31.4 18.7989 31.33C17.3389 31.25 15.8789 31.29 14.5089 31.84ZM38.8189 25.62C38.9189 25.6 39.0189 25.61 39.0589 25.57C41.0089 23.68 42.4189 21.48 43.2289 18.92C43.4389 18.27 43.4289 17.6 43.5289 16.94C43.7789 15.21 43.5489 13.5 42.9989 11.84C42.8889 11.51 42.6889 11.45 42.4489 11.66C40.9789 12.89 39.8789 14.42 39.1889 16.15C38.3389 18.29 37.8889 20.54 38.1989 22.88C38.3089 23.8 38.2789 24.77 38.8189 25.62ZM39.3489 39.26C39.6589 39.57 39.8889 39.87 40.1889 40.09C40.8089 40.57 41.4389 41.06 42.1189 41.46C44.1089 42.65 46.1889 43.56 48.5689 43.81C50.4989 44.02 52.3389 43.9 54.1389 43.39C54.6989 43.23 54.7689 42.95 54.3289 42.56C52.8689 41.27 51.2289 40.2 49.3589 39.56C46.4789 38.58 43.5389 38.33 40.5489 38.8C40.1589 38.87 39.7189 38.85 39.3489 39.26ZM90.6289 29.37C90.6889 29.03 90.5889 28.69 90.6589 28.33C90.9089 27.14 90.7589 25.94 90.5289 24.77C90.3689 23.98 90.0789 23.2 89.8189 22.43C89.6889 22.06 89.4789 22.05 89.1989 22.33C87.8589 23.65 86.9289 25.24 86.4089 27C85.7489 29.24 85.5089 31.55 86.0189 33.89C86.1889 34.65 86.3689 35.41 86.5889 36.15C86.7089 36.55 86.9489 36.6 87.2089 36.3C88.9489 34.28 90.1089 31.97 90.6289 29.37ZM90.1189 49.91C90.5689 50.53 90.9789 50.82 92.0989 51.46C94.0489 52.58 96.1389 53.27 98.3989 53.58C100.769 53.9 102.999 53.56 105.169 52.79C105.719 52.6 105.739 52.44 105.309 52.07C103.719 50.72 101.869 49.87 99.8189 49.41C98.8589 49.19 97.8789 49.05 96.8989 48.96C94.6189 48.75 92.4089 49.08 90.2689 49.77C90.2089 49.79 90.1689 49.86 90.1189 49.91ZM102.439 78.39C102.439 78.32 102.459 78.25 102.449 78.18C102.379 77.83 102.279 77.49 102.219 77.14C101.699 74.22 99.7289 72.21 97.1089 70.6C96.8489 70.44 96.5389 70.25 96.2589 70.44C95.9789 70.63 96.0989 70.94 96.1489 71.22C96.3089 72.2 96.6089 73.16 97.0289 74.09C97.9689 76.18 99.7089 77.61 101.869 78.68C102.169 78.83 102.409 78.69 102.439 78.39ZM24.9589 13.12C25.1989 12.9 25.0489 12.59 25.0689 12.33C25.2089 9.34 24.1389 6.8 21.9189 4.69C21.7089 4.49 21.4889 4.31 21.2089 4.21C20.8689 4.09 20.6389 4.12 20.5589 4.5C20.5189 4.67 20.4689 4.84 20.4589 5.02C20.3689 8.43 21.8989 11.09 24.7289 13.12C24.7789 13.14 24.8689 13.12 24.9589 13.12ZM111.599 24.29C111.289 24.22 110.979 24.31 110.669 24.4C107.559 25.34 105.599 27.45 104.349 30.3C104.189 30.67 104.319 30.82 104.759 30.73C107.419 30.19 109.609 28.94 111.059 26.67C111.439 26.08 111.859 25.5 111.979 24.78C112.029 24.51 111.969 24.31 111.599 24.29ZM6.90891 55.81C6.62891 56.61 6.67891 56.68 7.29891 56.7C7.60891 56.71 7.92891 56.73 8.23891 56.7C10.5389 56.5 12.4389 55.61 14.0189 54.19C14.7489 53.53 15.2589 52.72 15.8589 51.97C15.9489 51.86 15.9989 51.71 15.8889 51.57C15.7689 51.43 15.6189 51.49 15.4689 51.49C14.3589 51.46 13.3089 51.66 12.2989 51.98C10.6989 52.49 9.20891 53.2 8.07891 54.36C7.55891 54.88 7.06891 55.41 6.90891 55.81ZM62.4289 44.73C62.7789 43.31 61.7489 42.14 60.4789 41.78C59.2089 41.43 57.6389 42.31 57.2989 43.48C56.9589 44.65 58.0089 46.2 59.3789 46.52C60.7189 46.84 62.1489 46.04 62.4289 44.73ZM48.2389 75.18C48.4689 74.13 47.6789 73.02 46.5189 72.77C45.3189 72.51 44.1489 73.21 43.9089 74.32C43.6989 75.3 44.4689 76.37 45.5889 76.66C46.7989 76.97 47.9889 76.3 48.2389 75.18ZM100.159 83.14C99.0689 82.87 97.8989 83.24 97.6289 84.7C97.4389 85.75 98.3489 86.79 99.5389 86.95C100.699 87.1 101.789 86.4 101.959 85.4C102.149 84.22 101.449 83.34 100.159 83.14ZM83.9989 82.49C83.6089 83.54 84.6989 84.55 85.7989 84.8C86.8389 85.04 88.1589 84.2 88.3389 83.22C88.5089 82.3 87.4789 81 86.4689 80.87C85.2389 80.71 84.1989 81.39 83.9989 82.49ZM5.38891 65.6C6.44891 65.94 7.93891 65.37 8.23891 64.5C8.59891 63.46 7.85891 62.4 6.59891 61.92C5.50891 61.5 4.31891 62.09 3.91891 62.99C3.53891 63.86 4.36891 65.27 5.38891 65.6ZM61.2589 78.1C61.4889 76.97 60.8089 76.12 59.4589 75.85C58.3489 75.62 57.1689 76.25 56.9489 77.2C56.7189 78.19 57.5489 79.37 58.6489 79.63C59.8689 79.9 61.0389 79.22 61.2589 78.1ZM33.0989 69.56C31.7889 69.08 30.6589 69.91 30.4889 70.79C30.2889 71.83 30.8889 72.9 31.9689 73.24C33.0689 73.58 34.4989 72.91 34.7689 71.94C35.0689 70.85 34.3989 69.9 33.0989 69.56ZM20.1189 65.99C18.7889 65.57 17.7589 65.95 17.3989 67.02C17.0489 68.03 17.6789 69.23 18.7389 69.6C19.8389 69.98 21.2189 69.4 21.5989 68.41C21.9189 67.54 21.1789 66.32 20.1189 65.99ZM73.2789 78.65C71.9089 78.35 70.9389 78.83 70.6889 79.95C70.4489 81 71.1189 82.13 72.1989 82.33C73.5689 82.58 74.6289 81.89 74.8289 80.96C75.0189 80.03 74.3489 78.68 73.2789 78.65ZM82.0989 72.87C82.2189 72.12 82.3389 71.58 82.1789 71C82.0489 70.53 82.0789 69.81 81.5989 69.71C80.9689 69.58 80.5989 70.23 80.2989 70.69C79.3889 72.09 79.5489 73.56 80.2189 75.05C80.3689 75.37 80.6789 75.4 80.9389 75.12C81.6089 74.41 82.0489 73.61 82.0989 72.87ZM81.4589 62.67C81.1689 63.72 81.3689 64.67 81.8889 65.59C82.0789 65.93 82.2889 65.88 82.5189 65.69C83.8189 64.6 84.2689 62.02 83.4489 60.5C83.2689 60.16 82.9889 60.09 82.7389 60.36C82.0989 61.05 81.4389 61.73 81.4589 62.67ZM29.5289 60.78C29.7989 60.06 29.8389 59.33 29.6289 58.57C29.5589 58.32 29.4989 58.06 29.2089 57.95C28.8489 57.82 28.6289 58.03 28.4089 58.23C26.9289 59.56 26.7789 61.23 27.4689 63.01C27.6089 63.38 27.8789 63.43 28.1489 63.13C28.7689 62.42 29.3889 61.72 29.5289 60.78ZM30.1689 54.1C31.0489 53.72 31.4189 53.01 31.7589 52.34C32.2989 51.26 32.2189 50.08 31.9389 48.91C31.8389 48.48 31.6489 48.48 31.1989 48.73C30.5889 49.08 30.2489 49.63 29.9689 50.19C29.3489 51.45 29.3889 52.76 30.1689 54.1ZM73.1889 66.1C73.2489 66.56 73.6589 66.72 73.9689 66.9C74.4289 67.17 74.9289 67.4 75.4389 67.59C76.7389 68.06 78.0389 68.08 79.3189 67.66C79.7189 67.53 79.7389 67.33 79.4089 67.06C78.2189 66.08 76.7689 65.82 75.2689 65.75C74.5589 65.71 73.8089 65.73 73.1889 66.1ZM87.2389 69.77C88.0989 69.79 88.9889 69.8 89.8489 69.56C90.1189 69.49 90.3789 69.39 90.4289 69.11C90.4789 68.85 90.2189 68.75 90.0389 68.62C88.3789 67.47 86.5789 67.44 84.7089 67.88C84.5989 67.91 84.4989 67.97 84.4189 68.04C84.2089 68.22 84.2089 68.45 84.4289 68.59C85.2789 69.12 86.1989 69.52 87.2389 69.77ZM76.9889 61.45C76.3289 61.31 76.1389 61.44 76.1789 61.79C76.3589 63.32 78.2089 65.4 79.8489 65.89C80.3189 66.03 80.5589 65.87 80.4589 65.45C80.2389 64.53 79.9089 63.64 79.1689 62.95C78.4689 62.3 77.6889 61.74 76.9889 61.45ZM74.3089 71.68C76.4689 72.26 79.1589 70.97 80.0089 69.04C78.1689 68.36 75.6689 69.5 74.3089 71.68ZM83.7989 69.59C83.4489 69.53 83.2589 69.68 83.3089 70C83.6089 71.9 85.1489 73.34 87.1589 74.06C87.5889 74.21 87.7989 73.98 87.6489 73.52C87.1389 71.95 86.2189 70.66 84.5289 69.9C84.2789 69.79 84.0789 69.6 83.7989 69.59ZM84.1989 66.66C85.8889 66.64 87.4389 66.17 88.5089 64.81C88.7689 64.48 89.3289 64.16 89.0889 63.75C88.7889 63.25 88.1489 63.55 87.6989 63.62C85.9989 63.91 84.6089 64.64 83.8389 66.12C83.6789 66.45 83.7489 66.6 84.1989 66.66ZM24.5889 49.1C24.8089 51.12 25.7389 52.73 27.7389 53.78C27.9489 53.89 28.1589 54.05 28.3689 53.89C28.5689 53.75 28.4889 53.52 28.4489 53.3C28.1889 51.72 27.3089 50.49 25.8789 49.56C25.5489 49.34 25.2389 49 24.5889 49.1ZM65.5289 18.28C64.6489 18.07 63.6889 18.6 63.5289 19.41C63.3889 20.1 64.0389 21.18 64.7289 21.38C65.6089 21.64 66.5589 21.05 66.7589 20.11C66.9289 19.31 66.3689 18.48 65.5289 18.28ZM54.9889 66.18C53.9989 65.94 52.9789 66.42 52.7789 67.22C52.5989 67.96 53.3189 69.09 54.1889 69.24C55.1389 69.41 56.0089 69.13 56.2689 68.06C56.4989 67.18 55.9589 66.41 54.9889 66.18ZM31.0189 57.96C30.9889 58.43 30.9789 58.93 31.1989 59.39C31.8589 60.79 32.8689 61.93 34.3789 62.68C34.7589 62.87 34.9789 62.75 34.9189 62.35C34.6789 60.72 33.8389 59.38 32.3289 58.4C31.9589 58.17 31.6089 57.77 31.0189 57.96ZM22.2989 59.37C23.0989 59.45 23.9189 59.38 24.7089 59.19C25.8189 58.91 26.7589 58.38 27.4189 57.53C27.7589 57.09 27.5589 56.78 26.9589 56.76C25.9589 56.72 25.0089 56.88 24.1289 57.24C23.3089 57.58 22.6889 58.14 22.1289 58.76C21.8989 59.01 21.9789 59.28 22.2989 59.37ZM37.3189 52.78C37.3589 52.45 37.1089 52.38 36.8789 52.37C35.3789 52.36 33.9789 52.64 32.8089 53.49C32.4289 53.76 32.0889 54.09 31.8889 54.52C31.7489 54.82 31.8589 55 32.2089 55.03C34.3189 55.22 35.9489 54.49 37.1689 53.03C37.2389 52.95 37.2789 52.84 37.3189 52.78ZM34.8289 58.23C35.6989 58.56 36.5489 58.56 37.3989 58.42C37.6489 58.38 38.0189 58.42 38.0789 58.13C38.1389 57.83 37.8489 57.61 37.6189 57.41C37.5389 57.34 37.4089 57.31 37.3089 57.25C35.7989 56.36 34.2089 56.06 32.5089 56.4C32.3189 56.44 32.0889 56.45 32.0989 56.67C32.1089 56.79 32.2189 56.95 32.3389 57.03C33.1189 57.53 33.8689 58.11 34.8289 58.23ZM24.1089 55.3C25.0789 55.6 25.9189 55.81 26.7889 55.65C27.0189 55.61 27.2689 55.61 27.3289 55.35C27.3789 55.11 27.2289 54.92 27.0389 54.79C25.4589 53.65 23.7189 53.12 21.7689 53.39C21.5789 53.42 21.3489 53.42 21.3289 53.64C21.3189 53.82 21.4589 53.99 21.6289 54.09C22.4589 54.59 23.2289 55.2 24.1089 55.3ZM86.4789 49.27C86.6289 48.45 85.9789 47.55 85.1489 47.42C84.3489 47.3 83.4989 47.87 83.3289 48.65C83.1589 49.44 83.7189 50.18 84.6289 50.36C85.5789 50.55 86.3289 50.1 86.4789 49.27ZM33.8489 39.06C34.7489 39.31 35.4589 38.96 35.6789 38.18C35.9389 37.26 35.5089 36.56 34.5389 36.31C33.7489 36.11 32.7189 36.62 32.5889 37.28C32.4189 38.09 32.9389 38.81 33.8489 39.06ZM82.9689 67.93C83.0789 67.3 82.7289 66.81 82.1389 66.72C81.4289 66.62 80.9189 66.94 80.8089 67.58C80.6989 68.2 81.0889 68.69 81.7989 68.82C82.3889 68.93 82.8589 68.57 82.9689 67.93ZM29.5989 56.84C30.3089 57.02 30.5989 56.86 30.7789 56.22C30.9389 55.63 30.5589 55.03 29.9289 54.9C29.3789 54.79 28.7489 55.17 28.6389 55.68C28.5289 56.19 28.9189 56.67 29.5989 56.84Z" fill="#7331A6"/>
</svg>
