<svg width="24" height="25" viewBox="0 0 24 25" fill="none" xmlns="http://www.w3.org/2000/svg">
<path d="M2.27001 12.95C4.90001 13.74 7.47002 14.27 9.91002 14.54C10.53 14.61 11.11 15.04 11.36 15.62C12.31 17.89 13.54 20.2 15.05 22.5C15.59 23.33 15.26 24.17 14.29 24.18C11.61 24.18 8.79002 23.94 5.87002 23.41C5.12002 23.28 4.34001 22.69 4.00001 22.01C2.67001 19.35 1.63001 16.72 0.880014 14.15C0.600014 13.22 1.32001 12.66 2.27001 12.95Z" fill="#FA7021"/>
<path d="M10.86 20.28C10.55 19.99 10.2 19.69 9.80998 19.6C9.11998 19.45 8.66999 20 8.07999 20.21C7.44999 20.44 6.63999 20.25 5.93999 19.89C5.23999 19.53 4.63999 19 4.04999 18.48C4.06999 19.23 4.09999 19.98 4.11999 20.73C4.12999 21.05 4.13999 21.39 4.29999 21.71C4.70999 22.56 5.85999 22.87 6.78999 22.99C8.58999 23.22 10.82 23.54 12.5 23.22C14.53 22.84 11.93 21.26 10.86 20.28Z" fill="#FB8C30"/>
<path d="M1.16003 13.42C1.70003 14.3 1.55003 15.32 2.12003 16.19C2.49003 16.76 3.14004 17.18 3.79004 17.4C4.44004 17.62 5.11003 17.66 5.75003 17.65C6.99003 17.64 13.77 16.35 9.65004 14.74C8.53004 14.3 6.88003 14.21 5.71003 13.98C5.27003 13.88 1.24003 13.55 1.16003 13.42Z" fill="#F35712"/>
<path d="M20.66 1.13C21.54 3.36 22.56 5.4 23.7 7.22C23.99 7.68 24 8.32 23.74 8.79C22.7 10.67 21.78 12.75 21.02 15.02C20.75 15.84 19.99 16.07 19.46 15.41C18.01 13.58 16.66 11.52 15.44 9.23C15.13 8.65 15.11 7.79 15.39 7.2C16.49 4.85 17.73 2.72 19.08 0.82C19.57 0.14 20.34 0.32 20.66 1.13Z" fill="#FA7021"/>
<path d="M20.28 10.97C20.31 10.6 20.33 10.2 20.18 9.88C19.91 9.33 19.29 9.32 18.83 9.03C18.34 8.72 18.02 8.07 17.9 7.4C17.77 6.73 17.81 6.03 17.84 5.34C17.34 5.76 16.84 6.18 16.34 6.61C16.12 6.79 15.9 6.98 15.77 7.26C15.41 8 15.82 8.95 16.24 9.66C17.05 11.02 18.04 12.72 19.16 13.69C20.5 14.86 20.18 12.23 20.28 10.97Z" fill="#FB8C30"/>
<path d="M19.74 0.619999C19.43 1.46 18.65 1.92 18.36 2.77C18.17 3.34 18.23 4 18.44 4.57C18.64 5.13 18.97 5.61 19.33 6.05C20.01 6.89 24.54 10.83 23.43 7.15C23.12 6.14 22.3 4.97 21.83 4.04C21.64 3.69 19.69 0.759999 19.74 0.619999Z" fill="#F35712"/>
</svg>
