<svg width="24" height="25" viewBox="0 0 24 25" fill="none" xmlns="http://www.w3.org/2000/svg">
<path d="M21.73 12.05C19.1 11.26 16.53 10.73 14.09 10.46C13.47 10.39 12.89 9.96 12.64 9.38C11.69 7.11 10.46 4.8 8.94998 2.5C8.40998 1.67 8.73999 0.829999 9.70999 0.819999C12.39 0.819999 15.21 1.06 18.13 1.59C18.88 1.72 19.66 2.31 20 2.99C21.33 5.65 22.37 8.28 23.12 10.85C23.4 11.78 22.68 12.34 21.73 12.05Z" fill="#FA7021"/>
<path d="M13.14 4.72C13.45 5.01 13.8 5.31 14.19 5.4C14.88 5.55 15.33 5 15.92 4.79C16.55 4.56 17.36 4.75 18.06 5.11C18.76 5.47 19.36 6 19.95 6.52C19.93 5.77 19.9 5.02 19.88 4.27C19.87 3.95 19.86 3.61 19.7 3.29C19.29 2.44 18.14 2.13 17.21 2.01C15.41 1.78 13.18 1.46 11.5 1.78C9.47002 2.16 12.07 3.74 13.14 4.72Z" fill="#FB8C30"/>
<path d="M22.84 11.58C22.3 10.7 22.45 9.68 21.88 8.81C21.51 8.24 20.86 7.82 20.21 7.6C19.56 7.38 18.89 7.34 18.25 7.35C17.01 7.36 10.23 8.65 14.35 10.26C15.47 10.7 17.12 10.79 18.29 11.02C18.73 11.12 22.76 11.45 22.84 11.58Z" fill="#F35712"/>
<path d="M3.33998 23.87C2.45998 21.64 1.43998 19.6 0.299982 17.78C0.00998211 17.32 -1.90735e-05 16.68 0.259981 16.21C1.29998 14.33 2.21998 12.25 2.97998 9.98C3.24998 9.16 4.00998 8.93 4.53998 9.59C5.98998 11.42 7.33998 13.48 8.55998 15.77C8.86998 16.35 8.88998 17.21 8.60998 17.8C7.50998 20.15 6.26998 22.28 4.91998 24.18C4.42998 24.86 3.65998 24.68 3.33998 23.87Z" fill="#FA7021"/>
<path d="M3.72 14.03C3.69 14.4 3.67 14.8 3.82 15.12C4.09 15.67 4.71 15.68 5.17 15.97C5.66 16.28 5.98 16.93 6.1 17.6C6.23 18.27 6.19 18.97 6.16 19.66C6.66 19.24 7.16 18.82 7.66 18.39C7.88 18.21 8.1 18.02 8.23 17.74C8.59 17 8.18 16.05 7.76 15.34C6.95 13.98 5.96 12.28 4.84 11.31C3.5 10.14 3.82 12.77 3.72 14.03Z" fill="#FB8C30"/>
<path d="M4.25999 24.38C4.56999 23.54 5.34999 23.08 5.63999 22.23C5.82999 21.66 5.76999 21 5.55999 20.43C5.35999 19.87 5.02999 19.39 4.66999 18.95C3.98999 18.11 -0.540011 14.17 0.569989 17.85C0.879989 18.86 1.69999 20.03 2.16999 20.96C2.35999 21.31 4.30999 24.24 4.25999 24.38Z" fill="#F35712"/>
</svg>
